<svg xmlns="http://www.w3.org/2000/svg" width="760" height="2568" viewBox="0 0 760 2568"><defs><linearGradient id="grad_wkv" x1="0%" x2="100%" y1="0%" y2="0%"><stop offset="0%" stop-color="#3b82f6"/><stop offset="100%" stop-color="#1d4ed8"/></linearGradient><linearGradient id="grad_wbftree" x1="0%" x2="100%" y1="0%" y2="0%"><stop offset="0%" stop-color="#a855f7"/><stop offset="100%" stop-color="#6d28d9"/></linearGradient><linearGradient id="grad_redb" x1="0%" x2="100%" y1="0%" y2="0%"><stop offset="0%" stop-color="#fb923c"/><stop offset="100%" stop-color="#ea580c"/></linearGradient><linearGradient id="grad_fjall" x1="0%" x2="100%" y1="0%" y2="0%"><stop offset="0%" stop-color="#34d399"/><stop offset="100%" stop-color="#059669"/></linearGradient><linearGradient id="grad_rocksdb" x1="0%" x2="100%" y1="0%" y2="0%"><stop offset="0%" stop-color="#facc15"/><stop offset="100%" stop-color="#ca8a04"/></linearGradient><linearGradient id="grad_sqlite" x1="0%" x2="100%" y1="0%" y2="0%"><stop offset="0%" stop-color="#94a3b8"/><stop offset="100%" stop-color="#64748b"/></linearGradient></defs><style>text{font-family:-apple-system,BlinkMacSystemFont,&quot;Segoe UI&quot;,Roboto,&quot;Helvetica Neue&quot;,Arial,sans-serif}</style><rect width="100%" height="100%" fill="#fff"/><g class="header"><text x="4" y="24" fill="#0f172a" font-size="21" font-weight="800" letter-spacing=".3" transform="translate(20 20)">Embedded Key-Value Storage Benchmarks</text><text x="4" y="46" fill="#64748b" font-size="13" font-weight="500" transform="translate(20 20)">Benchmarking wkv &amp; wbftree against mainstream embedded databases</text></g><g class="legend" transform="translate(20 78)"><rect width="720" height="36" fill="#f8fafc" rx="8"/><circle cx="20" cy="18" r="4.5" fill="#2563eb"/><text x="30" y="22" fill="#0f172a" font-size="11.5" font-weight="700">wkv</text><circle cx="85" cy="18" r="4.5" fill="#7c3aed"/><text x="95" y="22" fill="#0f172a" font-size="11.5" font-weight="700">wbftree</text><circle cx="170" cy="18" r="4.5" fill="#ea580c"/><text x="180" y="22" fill="#334155" font-size="11.5" font-weight="600">redb</text><circle cx="240" cy="18" r="4.5" fill="#059669"/><text x="250" y="22" fill="#334155" font-size="11.5" font-weight="600">fjall</text><circle cx="305" cy="18" r="4.5" fill="#ca8a04"/><text x="315" y="22" fill="#334155" font-size="11.5" font-weight="600">rocksdb</text><circle cx="380" cy="18" r="4.5" fill="#64748b"/><text x="390" y="22" fill="#334155" font-size="11.5" font-weight="600">sqlite</text><path fill="#ea580c" d="m630 13.2 1.4 3.3 3.4.3-2.5 2.3.7 3.3-3-1.9-3 1.9.7-3.3-2.5-2.3 3.4-.3Z"/><text x="642" y="22" fill="#ea580c" font-size="11" font-weight="700">Leader</text></g><g class="card"><rect width="720" height="860" x="20" y="126" fill="#fff" rx="10"/><text x="36" y="148" fill="#0f172a" font-size="15" font-weight="800" letter-spacing=".2">Read Throughput Comparison (Higher is better)</text><g class="metric-head" transform="translate(0 162)"><circle cx="42" cy="10" r="3.5" fill="#2563eb"/><text x="52" y="14" fill="#0f172a" font-size="13.5" font-weight="700">random reads</text><text x="718" y="14" fill="#64748b" font-size="11" font-weight="500" text-anchor="end">Point Read · Higher is better</text></g><g class="bar-row"><text x="46" y="199" fill="#1d4ed8" font-size="12.5" font-weight="800">wkv</text><rect width="34" height="15" x="108" y="187" fill="#2563eb" rx="3.5"/><text x="125" y="198" fill="#fff" font-size="9" font-weight="700" text-anchor="middle">wedb</text><rect width="310" height="12" x="176" y="190" fill="#f1f5f9" rx="6"/><rect width="212" height="12" x="176" y="190" fill="url(#grad_wkv)" rx="6"/><text x="498" y="200" fill="#1e293b" font-size="12" font-weight="600">42.2 M/s</text><text x="716" y="200" fill="#64748b" font-size="11.5" font-weight="500" text-anchor="end">10.14X</text></g><g class="bar-row"><rect width="688" height="26" x="36" y="212" fill="#eff6ff" rx="6"/><text x="46" y="227" fill="#6d28d9" font-size="12.5" font-weight="800">wbftree</text><rect width="34" height="15" x="108" y="215" fill="#7c3aed" rx="3.5"/><text x="125" y="226" fill="#fff" font-size="9" font-weight="700" text-anchor="middle">wedb</text><path fill="#ea580c" d="m152 216.7 1.7 4 4.3.3-3.2 2.9 1 4.1-3.8-2.4-3.8 2.4 1-4.1-3.2-2.9 4.3-.3Z"/><rect width="310" height="12" x="176" y="218" fill="#f1f5f9" rx="6"/><rect width="310" height="12" x="176" y="218" fill="url(#grad_wbftree)" rx="6"/><text x="498" y="228" fill="#1d4ed8" font-size="12" font-weight="800">61.5 M/s</text><text x="716" y="228" fill="#ea580c" font-size="11.5" font-weight="800" text-anchor="end">14.80X</text></g><g class="bar-row"><text x="46" y="255" fill="#334155" font-size="12.5" font-weight="600">redb</text><rect width="310" height="12" x="176" y="246" fill="#f1f5f9" rx="6"/><rect width="204" height="12" x="176" y="246" fill="url(#grad_redb)" rx="6"/><text x="498" y="256" fill="#1e293b" font-size="12" font-weight="600">40.4 M/s</text><text x="716" y="256" fill="#64748b" font-size="11.5" font-weight="500" text-anchor="end">9.72X</text></g><g class="bar-row"><rect width="688" height="26" x="36" y="268" fill="#f8fafc" rx="6"/><text x="46" y="283" fill="#334155" font-size="12.5" font-weight="600">fjall</text><rect width="310" height="12" x="176" y="274" fill="#f1f5f9" rx="6"/><rect width="93" height="12" x="176" y="274" fill="url(#grad_fjall)" rx="6"/><text x="498" y="284" fill="#1e293b" font-size="12" font-weight="600">18.4 M/s</text><text x="716" y="284" fill="#64748b" font-size="11.5" font-weight="500" text-anchor="end">4.42X</text></g><g class="bar-row"><text x="46" y="311" fill="#334155" font-size="12.5" font-weight="600">rocksdb</text><rect width="310" height="12" x="176" y="302" fill="#f1f5f9" rx="6"/><rect width="21" height="12" x="176" y="302" fill="url(#grad_rocksdb)" rx="6"/><text x="498" y="312" fill="#1e293b" font-size="12" font-weight="600">4.16 M/s</text><text x="716" y="312" fill="#64748b" font-size="11.5" font-weight="500" text-anchor="end">1.00X</text></g><g class="bar-row"><rect width="688" height="26" x="36" y="324" fill="#f8fafc" rx="6"/><text x="46" y="339" fill="#334155" font-size="12.5" font-weight="600">sqlite</text><rect width="310" height="12" x="176" y="330" fill="#f1f5f9" rx="6"/><rect width="221" height="12" x="176" y="330" fill="url(#grad_sqlite)" rx="6"/><text x="498" y="340" fill="#1e293b" font-size="12" font-weight="600">43.8 M/s</text><text x="716" y="340" fill="#64748b" font-size="11.5" font-weight="500" text-anchor="end">10.53X</text></g><g class="metric-head" transform="translate(0 366)"><circle cx="42" cy="10" r="3.5" fill="#2563eb"/><text x="52" y="14" fill="#0f172a" font-size="13.5" font-weight="700">random range reads</text><text x="718" y="14" fill="#64748b" font-size="11" font-weight="500" text-anchor="end">Range Scan · Higher is better</text></g><g class="bar-row"><text x="46" y="403" fill="#1d4ed8" font-size="12.5" font-weight="800">wkv</text><rect width="34" height="15" x="108" y="391" fill="#2563eb" rx="3.5"/><text x="125" y="402" fill="#fff" font-size="9" font-weight="700" text-anchor="middle">wedb</text><text x="184" y="404" fill="#94a3b8" font-size="11.5" font-weight="500">N/A</text></g><g class="bar-row"><rect width="688" height="26" x="36" y="416" fill="#f8fafc" rx="6"/><text x="46" y="431" fill="#6d28d9" font-size="12.5" font-weight="800">wbftree</text><rect width="34" height="15" x="108" y="419" fill="#7c3aed" rx="3.5"/><text x="125" y="430" fill="#fff" font-size="9" font-weight="700" text-anchor="middle">wedb</text><rect width="310" height="12" x="176" y="422" fill="#f1f5f9" rx="6"/><rect width="118" height="12" x="176" y="422" fill="url(#grad_wbftree)" rx="6"/><text x="498" y="432" fill="#1e293b" font-size="12" font-weight="600">258 M/s</text><text x="716" y="432" fill="#64748b" font-size="11.5" font-weight="500" text-anchor="end">8.51X</text></g><g class="bar-row"><rect width="688" height="26" x="36" y="444" fill="#eff6ff" rx="6"/><text x="46" y="459" fill="#334155" font-size="12.5" font-weight="600">redb</text><path fill="#ea580c" d="m112 448.7 1.7 4 4.3.3-3.2 2.9 1 4.1-3.8-2.4-3.8 2.4 1-4.1-3.2-2.9 4.3-.3Z"/><rect width="310" height="12" x="176" y="450" fill="#f1f5f9" rx="6"/><rect width="310" height="12" x="176" y="450" fill="url(#grad_redb)" rx="6"/><text x="498" y="460" fill="#1d4ed8" font-size="12" font-weight="800">676 M/s</text><text x="716" y="460" fill="#ea580c" font-size="11.5" font-weight="800" text-anchor="end">22.33X</text></g><g class="bar-row"><rect width="688" height="26" x="36" y="472" fill="#f8fafc" rx="6"/><text x="46" y="487" fill="#334155" font-size="12.5" font-weight="600">fjall</text><rect width="310" height="12" x="176" y="478" fill="#f1f5f9" rx="6"/><rect width="59" height="12" x="176" y="478" fill="url(#grad_fjall)" rx="6"/><text x="498" y="488" fill="#1e293b" font-size="12" font-weight="600">128 M/s</text><text x="716" y="488" fill="#64748b" font-size="11.5" font-weight="500" text-anchor="end">4.22X</text></g><g class="bar-row"><text x="46" y="515" fill="#334155" font-size="12.5" font-weight="600">rocksdb</text><rect width="310" height="12" x="176" y="506" fill="#f1f5f9" rx="6"/><rect width="16" height="12" x="176" y="506" fill="url(#grad_rocksdb)" rx="6"/><text x="498" y="516" fill="#1e293b" font-size="12" font-weight="600">30.3 M/s</text><text x="716" y="516" fill="#64748b" font-size="11.5" font-weight="500" text-anchor="end">1.00X</text></g><g class="bar-row"><rect width="688" height="26" x="36" y="528" fill="#f8fafc" rx="6"/><text x="46" y="543" fill="#334155" font-size="12.5" font-weight="600">sqlite</text><rect width="310" height="12" x="176" y="534" fill="#f1f5f9" rx="6"/><rect width="32" height="12" x="176" y="534" fill="url(#grad_sqlite)" rx="6"/><text x="498" y="544" fill="#1e293b" font-size="12" font-weight="600">69.1 M/s</text><text x="716" y="544" fill="#64748b" font-size="11.5" font-weight="500" text-anchor="end">2.28X</text></g><g class="metric-head" transform="translate(0 570)"><circle cx="42" cy="10" r="3.5" fill="#2563eb"/><text x="52" y="14" fill="#0f172a" font-size="13.5" font-weight="700">random reads (8 threads)</text><text x="718" y="14" fill="#64748b" font-size="11" font-weight="500" text-anchor="end">8-Thread Read · Higher is better</text></g><g class="bar-row"><text x="46" y="607" fill="#1d4ed8" font-size="12.5" font-weight="800">wkv</text><rect width="34" height="15" x="108" y="595" fill="#2563eb" rx="3.5"/><text x="125" y="606" fill="#fff" font-size="9" font-weight="700" text-anchor="middle">wedb</text><rect width="310" height="12" x="176" y="598" fill="#f1f5f9" rx="6"/><rect width="100" height="12" x="176" y="598" fill="url(#grad_wkv)" rx="6"/><text x="498" y="608" fill="#1e293b" font-size="12" font-weight="600">43.5 M/s</text><text x="716" y="608" fill="#64748b" font-size="11.5" font-weight="500" text-anchor="end">2.56X</text></g><g class="bar-row"><rect width="688" height="26" x="36" y="620" fill="#eff6ff" rx="6"/><text x="46" y="635" fill="#6d28d9" font-size="12.5" font-weight="800">wbftree</text><rect width="34" height="15" x="108" y="623" fill="#7c3aed" rx="3.5"/><text x="125" y="634" fill="#fff" font-size="9" font-weight="700" text-anchor="middle">wedb</text><path fill="#ea580c" d="m152 624.7 1.7 4 4.3.3-3.2 2.9 1 4.1-3.8-2.4-3.8 2.4 1-4.1-3.2-2.9 4.3-.3Z"/><rect width="310" height="12" x="176" y="626" fill="#f1f5f9" rx="6"/><rect width="310" height="12" x="176" y="626" fill="url(#grad_wbftree)" rx="6"/><text x="498" y="636" fill="#1d4ed8" font-size="12" font-weight="800">135 M/s</text><text x="716" y="636" fill="#ea580c" font-size="11.5" font-weight="800" text-anchor="end">7.96X</text></g><g class="bar-row"><text x="46" y="663" fill="#334155" font-size="12.5" font-weight="600">redb</text><rect width="310" height="12" x="176" y="654" fill="#f1f5f9" rx="6"/><rect width="141" height="12" x="176" y="654" fill="url(#grad_redb)" rx="6"/><text x="498" y="664" fill="#1e293b" font-size="12" font-weight="600">61.4 M/s</text><text x="716" y="664" fill="#64748b" font-size="11.5" font-weight="500" text-anchor="end">3.61X</text></g><g class="bar-row"><rect width="688" height="26" x="36" y="676" fill="#f8fafc" rx="6"/><text x="46" y="691" fill="#334155" font-size="12.5" font-weight="600">fjall</text><rect width="310" height="12" x="176" y="682" fill="#f1f5f9" rx="6"/><rect width="60" height="12" x="176" y="682" fill="url(#grad_fjall)" rx="6"/><text x="498" y="692" fill="#1e293b" font-size="12" font-weight="600">26.0 M/s</text><text x="716" y="692" fill="#64748b" font-size="11.5" font-weight="500" text-anchor="end">1.53X</text></g><g class="bar-row"><text x="46" y="719" fill="#334155" font-size="12.5" font-weight="600">rocksdb</text><rect width="310" height="12" x="176" y="710" fill="#f1f5f9" rx="6"/><rect width="39" height="12" x="176" y="710" fill="url(#grad_rocksdb)" rx="6"/><text x="498" y="720" fill="#1e293b" font-size="12" font-weight="600">17.0 M/s</text><text x="716" y="720" fill="#64748b" font-size="11.5" font-weight="500" text-anchor="end">1.00X</text></g><g class="bar-row"><rect width="688" height="26" x="36" y="732" fill="#f8fafc" rx="6"/><text x="46" y="747" fill="#334155" font-size="12.5" font-weight="600">sqlite</text><rect width="310" height="12" x="176" y="738" fill="#f1f5f9" rx="6"/><rect width="48" height="12" x="176" y="738" fill="url(#grad_sqlite)" rx="6"/><text x="498" y="748" fill="#1e293b" font-size="12" font-weight="600">20.8 M/s</text><text x="716" y="748" fill="#64748b" font-size="11.5" font-weight="500" text-anchor="end">1.22X</text></g><g class="metric-head" transform="translate(0 774)"><circle cx="42" cy="10" r="3.5" fill="#2563eb"/><text x="52" y="14" fill="#0f172a" font-size="13.5" font-weight="700">random reads (4 threads)</text><text x="718" y="14" fill="#64748b" font-size="11" font-weight="500" text-anchor="end">4-Thread Read · Higher is better</text></g><g class="bar-row"><text x="46" y="811" fill="#1d4ed8" font-size="12.5" font-weight="800">wkv</text><rect width="34" height="15" x="108" y="799" fill="#2563eb" rx="3.5"/><text x="125" y="810" fill="#fff" font-size="9" font-weight="700" text-anchor="middle">wedb</text><rect width="310" height="12" x="176" y="802" fill="#f1f5f9" rx="6"/><rect width="162" height="12" x="176" y="802" fill="url(#grad_wkv)" rx="6"/><text x="498" y="812" fill="#1e293b" font-size="12" font-weight="600">56.9 M/s</text><text x="716" y="812" fill="#64748b" font-size="11.5" font-weight="500" text-anchor="end">5.81X</text></g><g class="bar-row"><rect width="688" height="26" x="36" y="824" fill="#eff6ff" rx="6"/><text x="46" y="839" fill="#6d28d9" font-size="12.5" font-weight="800">wbftree</text><rect width="34" height="15" x="108" y="827" fill="#7c3aed" rx="3.5"/><text x="125" y="838" fill="#fff" font-size="9" font-weight="700" text-anchor="middle">wedb</text><path fill="#ea580c" d="m152 828.7 1.7 4 4.3.3-3.2 2.9 1 4.1-3.8-2.4-3.8 2.4 1-4.1-3.2-2.9 4.3-.3Z"/><rect width="310" height="12" x="176" y="830" fill="#f1f5f9" rx="6"/><rect width="310" height="12" x="176" y="830" fill="url(#grad_wbftree)" rx="6"/><text x="498" y="840" fill="#1d4ed8" font-size="12" font-weight="800">109 M/s</text><text x="716" y="840" fill="#ea580c" font-size="11.5" font-weight="800" text-anchor="end">11.11X</text></g><g class="bar-row"><text x="46" y="867" fill="#334155" font-size="12.5" font-weight="600">redb</text><rect width="310" height="12" x="176" y="858" fill="#f1f5f9" rx="6"/><rect width="113" height="12" x="176" y="858" fill="url(#grad_redb)" rx="6"/><text x="498" y="868" fill="#1e293b" font-size="12" font-weight="600">39.8 M/s</text><text x="716" y="868" fill="#64748b" font-size="11.5" font-weight="500" text-anchor="end">4.07X</text></g><g class="bar-row"><rect width="688" height="26" x="36" y="880" fill="#f8fafc" rx="6"/><text x="46" y="895" fill="#334155" font-size="12.5" font-weight="600">fjall</text><rect width="310" height="12" x="176" y="886" fill="#f1f5f9" rx="6"/><rect width="28" height="12" x="176" y="886" fill="url(#grad_fjall)" rx="6"/><text x="498" y="896" fill="#1e293b" font-size="12" font-weight="600">9.78 M/s</text><text x="716" y="896" fill="#64748b" font-size="11.5" font-weight="500" text-anchor="end">1.00X</text></g><g class="bar-row"><text x="46" y="923" fill="#334155" font-size="12.5" font-weight="600">rocksdb</text><rect width="310" height="12" x="176" y="914" fill="#f1f5f9" rx="6"/><rect width="40" height="12" x="176" y="914" fill="url(#grad_rocksdb)" rx="6"/><text x="498" y="924" fill="#1e293b" font-size="12" font-weight="600">14.1 M/s</text><text x="716" y="924" fill="#64748b" font-size="11.5" font-weight="500" text-anchor="end">1.44X</text></g><g class="bar-row"><rect width="688" height="26" x="36" y="936" fill="#f8fafc" rx="6"/><text x="46" y="951" fill="#334155" font-size="12.5" font-weight="600">sqlite</text><rect width="310" height="12" x="176" y="942" fill="#f1f5f9" rx="6"/><rect width="73" height="12" x="176" y="942" fill="url(#grad_sqlite)" rx="6"/><text x="498" y="952" fill="#1e293b" font-size="12" font-weight="600">25.5 M/s</text><text x="716" y="952" fill="#64748b" font-size="11.5" font-weight="500" text-anchor="end">2.60X</text></g></g><g class="card"><rect width="720" height="860" x="20" y="992" fill="#fff" rx="10"/><text x="36" y="1014" fill="#0f172a" font-size="15" font-weight="800" letter-spacing=".2">Write Throughput Comparison (Higher is better)</text><g class="metric-head" transform="translate(0 1028)"><circle cx="42" cy="10" r="3.5" fill="#2563eb"/><text x="52" y="14" fill="#0f172a" font-size="13.5" font-weight="700">individual writes</text><text x="718" y="14" fill="#64748b" font-size="11" font-weight="500" text-anchor="end">Individual Write · Higher is better</text></g><g class="bar-row"><rect width="688" height="26" x="36" y="1050" fill="#eff6ff" rx="6"/><text x="46" y="1065" fill="#1d4ed8" font-size="12.5" font-weight="800">wkv</text><rect width="34" height="15" x="108" y="1053" fill="#2563eb" rx="3.5"/><text x="125" y="1064" fill="#fff" font-size="9" font-weight="700" text-anchor="middle">wedb</text><path fill="#ea580c" d="m152 1054.7 1.7 4 4.3.3-3.2 2.9 1 4.1-3.8-2.4-3.8 2.4 1-4.1-3.2-2.9 4.3-.3Z"/><rect width="310" height="12" x="176" y="1056" fill="#f1f5f9" rx="6"/><rect width="310" height="12" x="176" y="1056" fill="url(#grad_wkv)" rx="6"/><text x="498" y="1066" fill="#1d4ed8" font-size="12" font-weight="800">276 M/s</text><text x="716" y="1066" fill="#ea580c" font-size="11.5" font-weight="800" text-anchor="end">8110.15X</text></g><g class="bar-row"><rect width="688" height="26" x="36" y="1078" fill="#f8fafc" rx="6"/><text x="46" y="1093" fill="#6d28d9" font-size="12.5" font-weight="800">wbftree</text><rect width="34" height="15" x="108" y="1081" fill="#7c3aed" rx="3.5"/><text x="125" y="1092" fill="#fff" font-size="9" font-weight="700" text-anchor="middle">wedb</text><rect width="310" height="12" x="176" y="1084" fill="#f1f5f9" rx="6"/><rect width="265" height="12" x="176" y="1084" fill="url(#grad_wbftree)" rx="6"/><text x="498" y="1094" fill="#1e293b" font-size="12" font-weight="600">74.2 M/s</text><text x="716" y="1094" fill="#64748b" font-size="11.5" font-weight="500" text-anchor="end">2179.40X</text></g><g class="bar-row"><text x="46" y="1121" fill="#334155" font-size="12.5" font-weight="600">redb</text><rect width="310" height="12" x="176" y="1112" fill="#f1f5f9" rx="6"/><rect width="25" height="12" x="176" y="1112" fill="url(#grad_redb)" rx="6"/><text x="498" y="1122" fill="#1e293b" font-size="12" font-weight="600">36.6 K/s</text><text x="716" y="1122" fill="#64748b" font-size="11.5" font-weight="500" text-anchor="end">1.05X</text></g><g class="bar-row"><rect width="688" height="26" x="36" y="1134" fill="#f8fafc" rx="6"/><text x="46" y="1149" fill="#334155" font-size="12.5" font-weight="600">fjall</text><rect width="310" height="12" x="176" y="1140" fill="#f1f5f9" rx="6"/><rect width="24" height="12" x="176" y="1140" fill="url(#grad_fjall)" rx="6"/><text x="498" y="1150" fill="#1e293b" font-size="12" font-weight="600">34.9 K/s</text><text x="716" y="1150" fill="#64748b" font-size="11.5" font-weight="500" text-anchor="end">1.00X</text></g><g class="bar-row"><text x="46" y="1177" fill="#334155" font-size="12.5" font-weight="600">rocksdb</text><rect width="310" height="12" x="176" y="1168" fill="#f1f5f9" rx="6"/><rect width="167" height="12" x="176" y="1168" fill="url(#grad_rocksdb)" rx="6"/><text x="498" y="1178" fill="#1e293b" font-size="12" font-weight="600">4.33 M/s</text><text x="716" y="1178" fill="#64748b" font-size="11.5" font-weight="500" text-anchor="end">127.23X</text></g><g class="bar-row"><rect width="688" height="26" x="36" y="1190" fill="#f8fafc" rx="6"/><text x="46" y="1205" fill="#334155" font-size="12.5" font-weight="600">sqlite</text><rect width="310" height="12" x="176" y="1196" fill="#f1f5f9" rx="6"/><rect width="150" height="12" x="176" y="1196" fill="url(#grad_sqlite)" rx="6"/><text x="498" y="1206" fill="#1e293b" font-size="12" font-weight="600">2.59 M/s</text><text x="716" y="1206" fill="#64748b" font-size="11.5" font-weight="500" text-anchor="end">76.09X</text></g><g class="metric-head" transform="translate(0 1232)"><circle cx="42" cy="10" r="3.5" fill="#2563eb"/><text x="52" y="14" fill="#0f172a" font-size="13.5" font-weight="700">bulk load</text><text x="718" y="14" fill="#64748b" font-size="11" font-weight="500" text-anchor="end">Bulk Load · Higher is better</text></g><g class="bar-row"><rect width="688" height="26" x="36" y="1254" fill="#eff6ff" rx="6"/><text x="46" y="1269" fill="#1d4ed8" font-size="12.5" font-weight="800">wkv</text><rect width="34" height="15" x="108" y="1257" fill="#2563eb" rx="3.5"/><text x="125" y="1268" fill="#fff" font-size="9" font-weight="700" text-anchor="middle">wedb</text><path fill="#ea580c" d="m152 1258.7 1.7 4 4.3.3-3.2 2.9 1 4.1-3.8-2.4-3.8 2.4 1-4.1-3.2-2.9 4.3-.3Z"/><rect width="310" height="12" x="176" y="1260" fill="#f1f5f9" rx="6"/><rect width="310" height="12" x="176" y="1260" fill="url(#grad_wkv)" rx="6"/><text x="498" y="1270" fill="#1d4ed8" font-size="12" font-weight="800">251 M/s</text><text x="716" y="1270" fill="#ea580c" font-size="11.5" font-weight="800" text-anchor="end">10.20X</text></g><g class="bar-row"><rect width="688" height="26" x="36" y="1282" fill="#f8fafc" rx="6"/><text x="46" y="1297" fill="#6d28d9" font-size="12.5" font-weight="800">wbftree</text><rect width="34" height="15" x="108" y="1285" fill="#7c3aed" rx="3.5"/><text x="125" y="1296" fill="#fff" font-size="9" font-weight="700" text-anchor="middle">wedb</text><rect width="310" height="12" x="176" y="1288" fill="#f1f5f9" rx="6"/><rect width="123" height="12" x="176" y="1288" fill="url(#grad_wbftree)" rx="6"/><text x="498" y="1298" fill="#1e293b" font-size="12" font-weight="600">99.8 M/s</text><text x="716" y="1298" fill="#64748b" font-size="11.5" font-weight="500" text-anchor="end">4.06X</text></g><g class="bar-row"><text x="46" y="1325" fill="#334155" font-size="12.5" font-weight="600">redb</text><rect width="310" height="12" x="176" y="1316" fill="#f1f5f9" rx="6"/><rect width="30" height="12" x="176" y="1316" fill="url(#grad_redb)" rx="6"/><text x="498" y="1326" fill="#1e293b" font-size="12" font-weight="600">24.6 M/s</text><text x="716" y="1326" fill="#64748b" font-size="11.5" font-weight="500" text-anchor="end">1.00X</text></g><g class="bar-row"><rect width="688" height="26" x="36" y="1338" fill="#f8fafc" rx="6"/><text x="46" y="1353" fill="#334155" font-size="12.5" font-weight="600">fjall</text><rect width="310" height="12" x="176" y="1344" fill="#f1f5f9" rx="6"/><rect width="79" height="12" x="176" y="1344" fill="url(#grad_fjall)" rx="6"/><text x="498" y="1354" fill="#1e293b" font-size="12" font-weight="600">63.6 M/s</text><text x="716" y="1354" fill="#64748b" font-size="11.5" font-weight="500" text-anchor="end">2.59X</text></g><g class="bar-row"><text x="46" y="1381" fill="#334155" font-size="12.5" font-weight="600">rocksdb</text><rect width="310" height="12" x="176" y="1372" fill="#f1f5f9" rx="6"/><rect width="33" height="12" x="176" y="1372" fill="url(#grad_rocksdb)" rx="6"/><text x="498" y="1382" fill="#1e293b" font-size="12" font-weight="600">26.4 M/s</text><text x="716" y="1382" fill="#64748b" font-size="11.5" font-weight="500" text-anchor="end">1.07X</text></g><g class="bar-row"><rect width="688" height="26" x="36" y="1394" fill="#f8fafc" rx="6"/><text x="46" y="1409" fill="#334155" font-size="12.5" font-weight="600">sqlite</text><rect width="310" height="12" x="176" y="1400" fill="#f1f5f9" rx="6"/><rect width="61" height="12" x="176" y="1400" fill="url(#grad_sqlite)" rx="6"/><text x="498" y="1410" fill="#1e293b" font-size="12" font-weight="600">49.5 M/s</text><text x="716" y="1410" fill="#64748b" font-size="11.5" font-weight="500" text-anchor="end">2.01X</text></g><g class="metric-head" transform="translate(0 1436)"><circle cx="42" cy="10" r="3.5" fill="#2563eb"/><text x="52" y="14" fill="#0f172a" font-size="13.5" font-weight="700">batch writes</text><text x="718" y="14" fill="#64748b" font-size="11" font-weight="500" text-anchor="end">Batch Write · Higher is better</text></g><g class="bar-row"><rect width="688" height="26" x="36" y="1458" fill="#eff6ff" rx="6"/><text x="46" y="1473" fill="#1d4ed8" font-size="12.5" font-weight="800">wkv</text><rect width="34" height="15" x="108" y="1461" fill="#2563eb" rx="3.5"/><text x="125" y="1472" fill="#fff" font-size="9" font-weight="700" text-anchor="middle">wedb</text><path fill="#ea580c" d="m152 1462.7 1.7 4 4.3.3-3.2 2.9 1 4.1-3.8-2.4-3.8 2.4 1-4.1-3.2-2.9 4.3-.3Z"/><rect width="310" height="12" x="176" y="1464" fill="#f1f5f9" rx="6"/><rect width="310" height="12" x="176" y="1464" fill="url(#grad_wkv)" rx="6"/><text x="498" y="1474" fill="#1d4ed8" font-size="12" font-weight="800">155 M/s</text><text x="716" y="1474" fill="#ea580c" font-size="11.5" font-weight="800" text-anchor="end">81.19X</text></g><g class="bar-row"><rect width="688" height="26" x="36" y="1486" fill="#f8fafc" rx="6"/><text x="46" y="1501" fill="#6d28d9" font-size="12.5" font-weight="800">wbftree</text><rect width="34" height="15" x="108" y="1489" fill="#7c3aed" rx="3.5"/><text x="125" y="1500" fill="#fff" font-size="9" font-weight="700" text-anchor="middle">wedb</text><rect width="310" height="12" x="176" y="1492" fill="#f1f5f9" rx="6"/><rect width="257" height="12" x="176" y="1492" fill="url(#grad_wbftree)" rx="6"/><text x="498" y="1502" fill="#1e293b" font-size="12" font-weight="600">72.4 M/s</text><text x="716" y="1502" fill="#64748b" font-size="11.5" font-weight="500" text-anchor="end">37.95X</text></g><g class="bar-row"><text x="46" y="1529" fill="#334155" font-size="12.5" font-weight="600">redb</text><rect width="310" height="12" x="176" y="1520" fill="#f1f5f9" rx="6"/><rect width="49" height="12" x="176" y="1520" fill="url(#grad_redb)" rx="6"/><text x="498" y="1530" fill="#1e293b" font-size="12" font-weight="600">1.91 M/s</text><text x="716" y="1530" fill="#64748b" font-size="11.5" font-weight="500" text-anchor="end">1.00X</text></g><g class="bar-row"><rect width="688" height="26" x="36" y="1542" fill="#f8fafc" rx="6"/><text x="46" y="1557" fill="#334155" font-size="12.5" font-weight="600">fjall</text><rect width="310" height="12" x="176" y="1548" fill="#f1f5f9" rx="6"/><rect width="183" height="12" x="176" y="1548" fill="url(#grad_fjall)" rx="6"/><text x="498" y="1558" fill="#1e293b" font-size="12" font-weight="600">24.0 M/s</text><text x="716" y="1558" fill="#64748b" font-size="11.5" font-weight="500" text-anchor="end">12.59X</text></g><g class="bar-row"><text x="46" y="1585" fill="#334155" font-size="12.5" font-weight="600">rocksdb</text><rect width="310" height="12" x="176" y="1576" fill="#f1f5f9" rx="6"/><rect width="253" height="12" x="176" y="1576" fill="url(#grad_rocksdb)" rx="6"/><text x="498" y="1586" fill="#1e293b" font-size="12" font-weight="600">68.3 M/s</text><text x="716" y="1586" fill="#64748b" font-size="11.5" font-weight="500" text-anchor="end">35.77X</text></g><g class="bar-row"><rect width="688" height="26" x="36" y="1598" fill="#f8fafc" rx="6"/><text x="46" y="1613" fill="#334155" font-size="12.5" font-weight="600">sqlite</text><rect width="310" height="12" x="176" y="1604" fill="#f1f5f9" rx="6"/><rect width="80" height="12" x="176" y="1604" fill="url(#grad_sqlite)" rx="6"/><text x="498" y="1614" fill="#1e293b" font-size="12" font-weight="600">4.08 M/s</text><text x="716" y="1614" fill="#64748b" font-size="11.5" font-weight="500" text-anchor="end">2.14X</text></g><g class="metric-head" transform="translate(0 1640)"><circle cx="42" cy="10" r="3.5" fill="#2563eb"/><text x="52" y="14" fill="#0f172a" font-size="13.5" font-weight="700">removals</text><text x="718" y="14" fill="#64748b" font-size="11" font-weight="500" text-anchor="end">Removals · Higher is better</text></g><g class="bar-row"><text x="46" y="1677" fill="#1d4ed8" font-size="12.5" font-weight="800">wkv</text><rect width="34" height="15" x="108" y="1665" fill="#2563eb" rx="3.5"/><text x="125" y="1676" fill="#fff" font-size="9" font-weight="700" text-anchor="middle">wedb</text><rect width="310" height="12" x="176" y="1668" fill="#f1f5f9" rx="6"/><rect width="244" height="12" x="176" y="1668" fill="url(#grad_wkv)" rx="6"/><text x="498" y="1678" fill="#1e293b" font-size="12" font-weight="600">43.9 M/s</text><text x="716" y="1678" fill="#64748b" font-size="11.5" font-weight="500" text-anchor="end">58.91X</text></g><g class="bar-row"><rect width="688" height="26" x="36" y="1690" fill="#eff6ff" rx="6"/><text x="46" y="1705" fill="#6d28d9" font-size="12.5" font-weight="800">wbftree</text><rect width="34" height="15" x="108" y="1693" fill="#7c3aed" rx="3.5"/><text x="125" y="1704" fill="#fff" font-size="9" font-weight="700" text-anchor="middle">wedb</text><path fill="#ea580c" d="m152 1694.7 1.7 4 4.3.3-3.2 2.9 1 4.1-3.8-2.4-3.8 2.4 1-4.1-3.2-2.9 4.3-.3Z"/><rect width="310" height="12" x="176" y="1696" fill="#f1f5f9" rx="6"/><rect width="310" height="12" x="176" y="1696" fill="url(#grad_wbftree)" rx="6"/><text x="498" y="1706" fill="#1d4ed8" font-size="12" font-weight="800">133 M/s</text><text x="716" y="1706" fill="#ea580c" font-size="11.5" font-weight="800" text-anchor="end">178.92X</text></g><g class="bar-row"><text x="46" y="1733" fill="#334155" font-size="12.5" font-weight="600">redb</text><rect width="310" height="12" x="176" y="1724" fill="#f1f5f9" rx="6"/><rect width="41" height="12" x="176" y="1724" fill="url(#grad_redb)" rx="6"/><text x="498" y="1734" fill="#1e293b" font-size="12" font-weight="600">764 K/s</text><text x="716" y="1734" fill="#64748b" font-size="11.5" font-weight="500" text-anchor="end">1.00X</text></g><g class="bar-row"><rect width="688" height="26" x="36" y="1746" fill="#f8fafc" rx="6"/><text x="46" y="1761" fill="#334155" font-size="12.5" font-weight="600">fjall</text><rect width="310" height="12" x="176" y="1752" fill="#f1f5f9" rx="6"/><rect width="285" height="12" x="176" y="1752" fill="url(#grad_fjall)" rx="6"/><text x="498" y="1762" fill="#1e293b" font-size="12" font-weight="600">86.8 M/s</text><text x="716" y="1762" fill="#64748b" font-size="11.5" font-weight="500" text-anchor="end">116.40X</text></g><g class="bar-row"><text x="46" y="1789" fill="#334155" font-size="12.5" font-weight="600">rocksdb</text><rect width="310" height="12" x="176" y="1780" fill="#f1f5f9" rx="6"/><rect width="262" height="12" x="176" y="1780" fill="url(#grad_rocksdb)" rx="6"/><text x="498" y="1790" fill="#1e293b" font-size="12" font-weight="600">59.4 M/s</text><text x="716" y="1790" fill="#64748b" font-size="11.5" font-weight="500" text-anchor="end">79.61X</text></g><g class="bar-row"><rect width="688" height="26" x="36" y="1802" fill="#f8fafc" rx="6"/><text x="46" y="1817" fill="#334155" font-size="12.5" font-weight="600">sqlite</text><rect width="310" height="12" x="176" y="1808" fill="#f1f5f9" rx="6"/><rect width="148" height="12" x="176" y="1808" fill="url(#grad_sqlite)" rx="6"/><text x="498" y="1818" fill="#1e293b" font-size="12" font-weight="600">8.15 M/s</text><text x="716" y="1818" fill="#64748b" font-size="11.5" font-weight="500" text-anchor="end">10.93X</text></g></g><g class="card"><rect width="720" height="452" x="20" y="1858" fill="#fff" rx="10"/><text x="36" y="1880" fill="#0f172a" font-size="15" font-weight="800" letter-spacing=".2">Storage &amp; Memory Overhead (Lower is better)</text><g class="metric-head" transform="translate(0 1894)"><circle cx="42" cy="10" r="3.5" fill="#2563eb"/><text x="52" y="14" fill="#0f172a" font-size="13.5" font-weight="700">pre-compaction size</text><text x="718" y="14" fill="#64748b" font-size="11" font-weight="500" text-anchor="end">Disk Usage · Lower is better</text></g><g class="bar-row"><text x="46" y="1931" fill="#1d4ed8" font-size="12.5" font-weight="800">wkv</text><rect width="34" height="15" x="108" y="1919" fill="#2563eb" rx="3.5"/><text x="125" y="1930" fill="#fff" font-size="9" font-weight="700" text-anchor="middle">wedb</text><rect width="310" height="12" x="176" y="1922" fill="#f1f5f9" rx="6"/><rect width="86" height="12" x="176" y="1922" fill="url(#grad_wkv)" rx="6"/><text x="498" y="1932" fill="#1e293b" font-size="12" font-weight="600">1.11 GiB</text><text x="716" y="1932" fill="#64748b" font-size="11.5" font-weight="500" text-anchor="end">1.04X</text></g><g class="bar-row"><rect width="688" height="26" x="36" y="1944" fill="#f8fafc" rx="6"/><text x="46" y="1959" fill="#6d28d9" font-size="12.5" font-weight="800">wbftree</text><rect width="34" height="15" x="108" y="1947" fill="#7c3aed" rx="3.5"/><text x="125" y="1958" fill="#fff" font-size="9" font-weight="700" text-anchor="middle">wedb</text><rect width="310" height="12" x="176" y="1950" fill="#f1f5f9" rx="6"/><rect width="118" height="12" x="176" y="1950" fill="url(#grad_wbftree)" rx="6"/><text x="498" y="1960" fill="#1e293b" font-size="12" font-weight="600">1.52 GiB</text><text x="716" y="1960" fill="#64748b" font-size="11.5" font-weight="500" text-anchor="end">1.42X</text></g><g class="bar-row"><text x="46" y="1987" fill="#334155" font-size="12.5" font-weight="600">redb</text><rect width="310" height="12" x="176" y="1978" fill="#f1f5f9" rx="6"/><rect width="310" height="12" x="176" y="1978" fill="url(#grad_redb)" rx="6"/><text x="498" y="1988" fill="#1e293b" font-size="12" font-weight="600">4.00 GiB</text><text x="716" y="1988" fill="#64748b" font-size="11.5" font-weight="500" text-anchor="end">3.73X</text></g><g class="bar-row"><rect width="688" height="26" x="36" y="2000" fill="#f8fafc" rx="6"/><text x="46" y="2015" fill="#334155" font-size="12.5" font-weight="600">fjall</text><rect width="310" height="12" x="176" y="2006" fill="#f1f5f9" rx="6"/><rect width="85" height="12" x="176" y="2006" fill="url(#grad_fjall)" rx="6"/><text x="498" y="2016" fill="#1e293b" font-size="12" font-weight="600">1.10 GiB</text><text x="716" y="2016" fill="#64748b" font-size="11.5" font-weight="500" text-anchor="end">1.02X</text></g><g class="bar-row"><rect width="688" height="26" x="36" y="2028" fill="#eff6ff" rx="6"/><text x="46" y="2043" fill="#334155" font-size="12.5" font-weight="600">rocksdb</text><path fill="#ea580c" d="m112 2032.7 1.7 4 4.3.3-3.2 2.9 1 4.1-3.8-2.4-3.8 2.4 1-4.1-3.2-2.9 4.3-.3Z"/><rect width="310" height="12" x="176" y="2034" fill="#f1f5f9" rx="6"/><rect width="83" height="12" x="176" y="2034" fill="url(#grad_rocksdb)" rx="6"/><text x="498" y="2044" fill="#1d4ed8" font-size="12" font-weight="800">1.07 GiB</text><text x="716" y="2044" fill="#ea580c" font-size="11.5" font-weight="800" text-anchor="end">★ Min</text></g><g class="bar-row"><rect width="688" height="26" x="36" y="2056" fill="#f8fafc" rx="6"/><text x="46" y="2071" fill="#334155" font-size="12.5" font-weight="600">sqlite</text><rect width="310" height="12" x="176" y="2062" fill="#f1f5f9" rx="6"/><rect width="102" height="12" x="176" y="2062" fill="url(#grad_sqlite)" rx="6"/><text x="498" y="2072" fill="#1e293b" font-size="12" font-weight="600">1.31 GiB</text><text x="716" y="2072" fill="#64748b" font-size="11.5" font-weight="500" text-anchor="end">1.23X</text></g><g class="metric-head" transform="translate(0 2098)"><circle cx="42" cy="10" r="3.5" fill="#2563eb"/><text x="52" y="14" fill="#0f172a" font-size="13.5" font-weight="700">memory usage</text><text x="718" y="14" fill="#64748b" font-size="11" font-weight="500" text-anchor="end">Memory Usage · Lower is better</text></g><g class="bar-row"><text x="46" y="2135" fill="#1d4ed8" font-size="12.5" font-weight="800">wkv</text><rect width="34" height="15" x="108" y="2123" fill="#2563eb" rx="3.5"/><text x="125" y="2134" fill="#fff" font-size="9" font-weight="700" text-anchor="middle">wedb</text><rect width="310" height="12" x="176" y="2126" fill="#f1f5f9" rx="6"/><rect width="93" height="12" x="176" y="2126" fill="url(#grad_wkv)" rx="6"/><text x="498" y="2136" fill="#1e293b" font-size="12" font-weight="600">845.62 MiB</text><text x="716" y="2136" fill="#64748b" font-size="11.5" font-weight="500" text-anchor="end">5.49X</text></g><g class="bar-row"><rect width="688" height="26" x="36" y="2148" fill="#eff6ff" rx="6"/><text x="46" y="2163" fill="#6d28d9" font-size="12.5" font-weight="800">wbftree</text><rect width="34" height="15" x="108" y="2151" fill="#7c3aed" rx="3.5"/><text x="125" y="2162" fill="#fff" font-size="9" font-weight="700" text-anchor="middle">wedb</text><path fill="#ea580c" d="m152 2152.7 1.7 4 4.3.3-3.2 2.9 1 4.1-3.8-2.4-3.8 2.4 1-4.1-3.2-2.9 4.3-.3Z"/><rect width="310" height="12" x="176" y="2154" fill="#f1f5f9" rx="6"/><rect width="17" height="12" x="176" y="2154" fill="url(#grad_wbftree)" rx="6"/><text x="498" y="2164" fill="#1d4ed8" font-size="12" font-weight="800">153.95 MiB</text><text x="716" y="2164" fill="#ea580c" font-size="11.5" font-weight="800" text-anchor="end">★ Min</text></g><g class="bar-row"><text x="46" y="2191" fill="#334155" font-size="12.5" font-weight="600">redb</text><rect width="310" height="12" x="176" y="2182" fill="#f1f5f9" rx="6"/><rect width="29" height="12" x="176" y="2182" fill="url(#grad_redb)" rx="6"/><text x="498" y="2192" fill="#1e293b" font-size="12" font-weight="600">268.42 MiB</text><text x="716" y="2192" fill="#64748b" font-size="11.5" font-weight="500" text-anchor="end">1.74X</text></g><g class="bar-row"><rect width="688" height="26" x="36" y="2204" fill="#f8fafc" rx="6"/><text x="46" y="2219" fill="#334155" font-size="12.5" font-weight="600">fjall</text><rect width="310" height="12" x="176" y="2210" fill="#f1f5f9" rx="6"/><rect width="310" height="12" x="176" y="2210" fill="url(#grad_fjall)" rx="6"/><text x="498" y="2220" fill="#1e293b" font-size="12" font-weight="600">2.77 GiB</text><text x="716" y="2220" fill="#64748b" font-size="11.5" font-weight="500" text-anchor="end">18.40X</text></g><g class="bar-row"><text x="46" y="2247" fill="#334155" font-size="12.5" font-weight="600">rocksdb</text><rect width="310" height="12" x="176" y="2238" fill="#f1f5f9" rx="6"/><rect width="49" height="12" x="176" y="2238" fill="url(#grad_rocksdb)" rx="6"/><text x="498" y="2248" fill="#1e293b" font-size="12" font-weight="600">448.84 MiB</text><text x="716" y="2248" fill="#64748b" font-size="11.5" font-weight="500" text-anchor="end">2.92X</text></g><g class="bar-row"><rect width="688" height="26" x="36" y="2260" fill="#f8fafc" rx="6"/><text x="46" y="2275" fill="#334155" font-size="12.5" font-weight="600">sqlite</text><rect width="310" height="12" x="176" y="2266" fill="#f1f5f9" rx="6"/><rect width="72" height="12" x="176" y="2266" fill="url(#grad_sqlite)" rx="6"/><text x="498" y="2276" fill="#1e293b" font-size="12" font-weight="600">654.44 MiB</text><text x="716" y="2276" fill="#64748b" font-size="11.5" font-weight="500" text-anchor="end">4.25X</text></g></g><g class="config-card"><rect width="720" height="236" x="20" y="2316" fill="#fff" rx="10"/><text x="36" y="2338" fill="#0f172a" font-size="14.5" font-weight="800">Benchmark Parameters ＆ System Environment 说明</text><rect width="164" height="42" x="36" y="2352" fill="#f8fafc" rx="6"/><text x="46" y="2369" fill="#64748b" font-size="11" font-weight="500">Key Size</text><text x="46" y="2386" fill="#0f172a" font-size="13" font-weight="700">24 B</text><rect width="164" height="42" x="208" y="2352" fill="#f8fafc" rx="6"/><text x="218" y="2369" fill="#64748b" font-size="11" font-weight="500">Value Size</text><text x="218" y="2386" fill="#0f172a" font-size="13" font-weight="700">150 B</text><rect width="164" height="42" x="380" y="2352" fill="#f8fafc" rx="6"/><text x="390" y="2369" fill="#64748b" font-size="11" font-weight="500">Cache Size</text><text x="390" y="2386" fill="#0f172a" font-size="13" font-weight="700">128 MiB</text><rect width="164" height="42" x="552" y="2352" fill="#f8fafc" rx="6"/><text x="562" y="2369" fill="#64748b" font-size="11" font-weight="500">Benchmark Elements</text><text x="562" y="2386" fill="#0f172a" font-size="13" font-weight="700">6,000,000</text><rect width="164" height="42" x="36" y="2402" fill="#f8fafc" rx="6"/><text x="46" y="2419" fill="#64748b" font-size="11" font-weight="500">CPU Model</text><text x="46" y="2436" fill="#0f172a" font-size="12" font-weight="700">Apple M2 Max</text><rect width="164" height="42" x="208" y="2402" fill="#f8fafc" rx="6"/><text x="218" y="2419" fill="#64748b" font-size="11" font-weight="500">CPU Cores</text><text x="218" y="2436" fill="#0f172a" font-size="12" font-weight="700">12 物理 / 12 逻辑</text><rect width="164" height="42" x="380" y="2402" fill="#f8fafc" rx="6"/><text x="390" y="2419" fill="#64748b" font-size="11" font-weight="500">Memory</text><text x="390" y="2436" fill="#0f172a" font-size="12" font-weight="700">64.0 GiB RAM</text><rect width="164" height="42" x="552" y="2402" fill="#f8fafc" rx="6"/><text x="562" y="2419" fill="#64748b" font-size="11" font-weight="500">Disk Type</text><text x="562" y="2436" fill="#0f172a" font-size="12" font-weight="700">NVMe SSD</text><text x="42" y="2470" fill="#64748b" font-size="11.5" font-weight="500">Performance metrics display relative multiplier in the first line (baseline</text><text x="42" y="2488" fill="#64748b" font-size="11.5" font-weight="500">1.00X for lowest performance, higher is better) and disk throughput in the</text><text x="42" y="2506" fill="#64748b" font-size="11.5" font-weight="500">second line. Random reads and range scans report median of 3 runs. Cache</text><text x="42" y="2524" fill="#64748b" font-size="11.5" font-weight="500">sizes are configured uniformly where applicable.</text></g></svg>