<svg xmlns="http://www.w3.org/2000/svg" width="1240" height="1748" fill="none" viewBox="0 0 1240 1748"><rect width="100%" height="100%" fill="#fff"/><style>text{font-family:-apple-system,BlinkMacSystemFont,&quot;Segoe UI&quot;,Roboto,&quot;Helvetica Neue&quot;,&quot;PingFang SC&quot;,&quot;Hiragino Sans GB&quot;,&quot;Microsoft YaHei&quot;,sans-serif}</style><text x="36" y="58" fill="#0f172a" font-size="22" font-weight="800" letter-spacing="-.3">fastalp Floating-Point Compression Benchmark</text><a target="_blank">
    <text x="36" y="80" fill="#2563eb" font-size="12" font-weight="600">github.com/webc-site/wedb_embed/tree/main/fastalp</text>
  </a><text x="36" y="102" fill="#334155" font-size="12.5" font-weight="500">Comprehensive Side-by-Side Benchmark: Decompression &amp; Compression Throughput and Ratios</text><g transform="translate(720 36)"><rect width="484" height="78" fill="#f8fafc" stroke="#cbd5e1" rx="8"/><text x="16" y="22" fill="#0f172a" font-size="11" font-weight="bold">HARDWARE &amp; RUNTIME ENVIRONMENT</text><text x="16" y="44" fill="#1e293b" font-size="11.5" font-weight="500">CPU: Apple M2 Max (12 Cores: 8 Performance @ 3.68GHz + 4 Efficiency @ 2.42GHz)</text><text x="16" y="64" fill="#475569" font-size="11">OS: macOS Sequoia ｜ Toolchain: Rust 1.98 / LLVM Clang (-O3)</text></g><text x="36" y="132" fill="#0f172a" font-size="16" font-weight="bold">Comprehensive Benchmark Across 8 Codecs</text><text x="36" y="152" fill="#475569" font-size="12">Evaluated across 31 real-world physical, financial, weather datasets (Metrics calculated using Geometric Mean)</text><g transform="translate(920 134)"><rect width="12" height="12" fill="#2563eb" rx="3"/><text x="18" y="10" fill="#1e293b" font-size="11" font-weight="600">Decode Speed (GB/s)</text><rect width="12" height="12" x="135" fill="#d97706" rx="3"/><text x="153" y="10" fill="#1e293b" font-size="11" font-weight="600">Encode Speed (GB/s)</text></g><rect width="1176" height="34" x="32" y="182" fill="#f1f5f9" stroke="#cbd5e1" rx="6"/><text x="48" y="204" fill="#1e293b" font-size="11" font-weight="bold">Algorithm</text><text x="240" y="204" fill="#1e293b" font-size="11" font-weight="bold">Decode Speed (Geomean)</text><text x="445" y="204" fill="#1e293b" font-size="11" font-weight="bold">Decode vs Base</text><text x="605" y="204" fill="#1e293b" font-size="11" font-weight="bold">Encode Speed (Geomean)</text><text x="810" y="204" fill="#1e293b" font-size="11" font-weight="bold">Encode vs Base</text><text x="975" y="204" fill="#1e293b" font-size="11" font-weight="bold">Ratio (Geomean)</text><g class="table-row"><rect width="1176" height="42" x="32" y="222" fill="#f0f7ff" stroke="#bfdbfe" stroke-width="1.2" rx="8"/><text x="48" y="245" fill="#1d4ed8" font-size="13.5" font-weight="bold">fastalp (Rust)</text><text x="48" y="259" fill="#475569" font-size="11">Float Specialized</text><rect width="54" height="18" x="180" y="231" fill="#2563eb" rx="4"/><text x="207" y="244" fill="#fff" font-size="10" font-weight="bold" text-anchor="middle">LEADER</text><g transform="translate(240 233)"><rect width="85" height="14" fill="#dbeafe" rx="3"/><rect width="71.745" height="14" fill="#2563eb" rx="3"/><text x="93" y="12" fill="#1d4ed8" font-size="12.5" font-weight="bold">20.26 GB/s</text></g><text x="445" y="248" fill="#1e3a8a" font-size="12" font-weight="bold">+6.4% Lead</text><g transform="translate(605 233)"><rect width="85" height="14" fill="#fef3c7" rx="3"/><rect width="35.537" height="14" fill="#d97706" rx="3"/><text x="93" y="12" fill="#92400e" font-size="12.5" font-weight="bold">2.51 GB/s</text></g><text x="810" y="248" fill="#92400e" font-size="12" font-weight="bold">0.49x</text><text x="975" y="248" fill="#1d4ed8" font-size="14" font-weight="bold">5.31x</text></g><g class="table-row"><rect width="1176" height="42" x="32" y="268" fill="#f8fafc" rx="8"/><text x="48" y="291" fill="#0f172a" font-size="13.5" font-weight="600">C++ ALP</text><text x="48" y="305" fill="#475569" font-size="11">Float Specialized</text><g transform="translate(240 279)"><rect width="85" height="14" fill="#dbeafe" rx="3"/><rect width="67.442" height="14" fill="#3b82f6" rx="3"/><text x="93" y="12" fill="#1e3a8a" font-size="12.5" font-weight="600">19.04 GB/s</text></g><text x="445" y="294" fill="#475569" font-size="12" font-weight="600">Baseline (1.00x)</text><g transform="translate(605 279)"><rect width="85" height="14" fill="#fef3c7" rx="3"/><rect width="72.572" height="14" fill="#f59e0b" rx="3"/><text x="93" y="12" fill="#78350f" font-size="12.5" font-weight="600">5.12 GB/s</text></g><text x="810" y="294" fill="#475569" font-size="12" font-weight="600">Baseline (1.00x)</text><text x="975" y="294" fill="#0f172a" font-size="14" font-weight="600">5.52x</text></g><g class="table-row"><text x="48" y="337" fill="#0f172a" font-size="13.5" font-weight="600">Pcodec (pco)</text><text x="48" y="351" fill="#475569" font-size="11">Float Specialized</text><g transform="translate(240 325)"><rect width="85" height="14" fill="#dbeafe" rx="3"/><rect width="6" height="14" fill="#64748b" rx="3"/><text x="93" y="12" fill="#1e293b" font-size="12.5" font-weight="600">1.69 GB/s</text></g><text x="445" y="340" fill="#64748b" font-size="12" font-weight="500">0.09x</text><g transform="translate(605 325)"><rect width="85" height="14" fill="#fef3c7" rx="3"/><rect width="6" height="14" fill="#b45309" rx="3"/><text x="93" y="12" fill="#475569" font-size="12.5" font-weight="600">0.21 GB/s</text></g><text x="810" y="340" fill="#64748b" font-size="12" font-weight="500">0.04x</text><text x="975" y="340" fill="#0f172a" font-size="14" font-weight="600">6.16x</text></g><g class="table-row"><rect width="1176" height="42" x="32" y="360" fill="#f8fafc" rx="8"/><text x="48" y="383" fill="#0f172a" font-size="13.5" font-weight="600">Zstd (level 3)</text><text x="48" y="397" fill="#475569" font-size="11">General Bytes</text><g transform="translate(240 371)"><rect width="85" height="14" fill="#dbeafe" rx="3"/><rect width="6" height="14" fill="#64748b" rx="3"/><text x="93" y="12" fill="#1e293b" font-size="12.5" font-weight="600">1.16 GB/s</text></g><text x="445" y="386" fill="#64748b" font-size="12" font-weight="500">0.06x</text><g transform="translate(605 371)"><rect width="85" height="14" fill="#fef3c7" rx="3"/><rect width="6.18" height="14" fill="#b45309" rx="3"/><text x="93" y="12" fill="#475569" font-size="12.5" font-weight="600">0.44 GB/s</text></g><text x="810" y="386" fill="#64748b" font-size="12" font-weight="500">0.09x</text><text x="975" y="386" fill="#0f172a" font-size="14" font-weight="600">4.83x</text></g><g class="table-row"><text x="48" y="429" fill="#0f172a" font-size="13.5" font-weight="600">LZ4 (lz4_flex)</text><text x="48" y="443" fill="#475569" font-size="11">General Bytes</text><g transform="translate(240 417)"><rect width="85" height="14" fill="#dbeafe" rx="3"/><rect width="15.305" height="14" fill="#64748b" rx="3"/><text x="93" y="12" fill="#1e293b" font-size="12.5" font-weight="600">4.32 GB/s</text></g><text x="445" y="432" fill="#64748b" font-size="12" font-weight="500">0.23x</text><g transform="translate(605 417)"><rect width="85" height="14" fill="#fef3c7" rx="3"/><rect width="23.482" height="14" fill="#b45309" rx="3"/><text x="93" y="12" fill="#475569" font-size="12.5" font-weight="600">1.66 GB/s</text></g><text x="810" y="432" fill="#64748b" font-size="12" font-weight="500">0.32x</text><text x="975" y="432" fill="#0f172a" font-size="14" font-weight="600">3.26x</text></g><g class="table-row"><rect width="1176" height="42" x="32" y="452" fill="#f8fafc" rx="8"/><text x="48" y="475" fill="#0f172a" font-size="13.5" font-weight="600">Snappy (snap)</text><text x="48" y="489" fill="#475569" font-size="11">General Bytes</text><g transform="translate(240 463)"><rect width="85" height="14" fill="#dbeafe" rx="3"/><rect width="14.315" height="14" fill="#64748b" rx="3"/><text x="93" y="12" fill="#1e293b" font-size="12.5" font-weight="600">4.04 GB/s</text></g><text x="445" y="478" fill="#64748b" font-size="12" font-weight="500">0.21x</text><g transform="translate(605 463)"><rect width="85" height="14" fill="#fef3c7" rx="3"/><rect width="31.048" height="14" fill="#b45309" rx="3"/><text x="93" y="12" fill="#475569" font-size="12.5" font-weight="600">2.19 GB/s</text></g><text x="810" y="478" fill="#64748b" font-size="12" font-weight="500">0.43x</text><text x="975" y="478" fill="#0f172a" font-size="14" font-weight="600">2.72x</text></g><g class="table-row"><text x="48" y="521" fill="#0f172a" font-size="13.5" font-weight="600">Chimp128 (graupel)</text><text x="48" y="535" fill="#475569" font-size="11">Float Specialized</text><g transform="translate(240 509)"><rect width="85" height="14" fill="#dbeafe" rx="3"/><rect width="6" height="14" fill="#64748b" rx="3"/><text x="93" y="12" fill="#1e293b" font-size="12.5" font-weight="600">0.45 GB/s</text></g><text x="445" y="524" fill="#64748b" font-size="12" font-weight="500">0.02x</text><g transform="translate(605 509)"><rect width="85" height="14" fill="#fef3c7" rx="3"/><rect width="8.579" height="14" fill="#b45309" rx="3"/><text x="93" y="12" fill="#475569" font-size="12.5" font-weight="600">0.61 GB/s</text></g><text x="810" y="524" fill="#64748b" font-size="12" font-weight="500">0.12x</text><text x="975" y="524" fill="#0f172a" font-size="14" font-weight="600">2.47x</text></g><g class="table-row"><rect width="1176" height="42" x="32" y="544" fill="#f8fafc" rx="8"/><text x="48" y="567" fill="#0f172a" font-size="13.5" font-weight="600">Gorilla (graupel)</text><text x="48" y="581" fill="#475569" font-size="11">Float Specialized</text><g transform="translate(240 555)"><rect width="85" height="14" fill="#dbeafe" rx="3"/><rect width="6" height="14" fill="#64748b" rx="3"/><text x="93" y="12" fill="#1e293b" font-size="12.5" font-weight="600">0.57 GB/s</text></g><text x="445" y="570" fill="#64748b" font-size="12" font-weight="500">0.03x</text><g transform="translate(605 555)"><rect width="85" height="14" fill="#fef3c7" rx="3"/><rect width="13.071" height="14" fill="#b45309" rx="3"/><text x="93" y="12" fill="#475569" font-size="12.5" font-weight="600">0.92 GB/s</text></g><text x="810" y="570" fill="#64748b" font-size="12" font-weight="500">0.18x</text><text x="975" y="570" fill="#0f172a" font-size="14" font-weight="600">2.14x</text></g><g class="sec2-unified-card"><rect width="1176" height="512" x="32" y="628" fill="#fff" stroke="#cbd5e1" stroke-width="1.2" rx="10"/><path fill="#f8fafc" d="M32 638q0-10 10-10h1156q10 0 10 10v34H32Z"/><text x="48" y="656" fill="#0f172a" font-size="13.5" font-weight="bold">All 31 Benchmark Datasets Individual Comparison (fastalp vs C++ ALP)</text><text x="1192" y="656" fill="#475569" font-size="11.5" font-weight="500" text-anchor="end">Full 31 dataset evaluation (Superior metric highlighted in blue, lower in slate gray)</text><g class="subtable"><rect width="564" height="30" x="48" y="686" fill="#f1f5f9" rx="5"/><text x="60" y="705" fill="#334155" font-size="10" font-weight="bold">Dataset Name</text><text x="228" y="705" fill="#334155" font-size="10" font-weight="bold">fastalp Ratio</text><text x="303" y="705" fill="#334155" font-size="10" font-weight="bold">C++ Ratio</text><text x="378" y="705" fill="#334155" font-size="10" font-weight="bold">fastalp Dec</text><text x="463" y="705" fill="#334155" font-size="10" font-weight="bold">C++ Dec</text><text x="600" y="705" fill="#334155" font-size="10" font-weight="bold" text-anchor="end">Speedup</text><text x="60" y="731" fill="#0f172a" font-size="10.5" font-weight="600">air_sensor_f</text><text x="228" y="731" fill="#64748b" font-size="11" font-weight="500">1.00x</text><text x="303" y="731" fill="#1d4ed8" font-size="11" font-weight="bold">1.21x</text><text x="378" y="731" fill="#1d4ed8" font-size="11" font-weight="bold">40.0 GB/s</text><text x="463" y="731" fill="#64748b" font-size="11" font-weight="500">13.4 GB/s</text><text x="600" y="731" fill="#1e3a8a" font-size="10.5" font-weight="bold" text-anchor="end">+198%</text><rect width="564" height="23" x="48" y="739" fill="#f8fafc" rx="4"/><text x="60" y="756" fill="#0f172a" font-size="10.5" font-weight="600">arade4</text><text x="228" y="756" fill="#1d4ed8" font-size="11" font-weight="bold">2.66x</text><text x="303" y="756" fill="#64748b" font-size="11" font-weight="500">2.59x</text><text x="378" y="756" fill="#64748b" font-size="11" font-weight="500">14.7 GB/s</text><text x="463" y="756" fill="#1d4ed8" font-size="11" font-weight="bold">21.2 GB/s</text><text x="600" y="756" fill="#64748b" font-size="10.5" font-weight="500" text-anchor="end">0.69x</text><text x="60" y="781" fill="#0f172a" font-size="10.5" font-weight="600">basel_temp_f</text><text x="228" y="781" fill="#1d4ed8" font-size="11" font-weight="bold">2.06x</text><text x="303" y="781" fill="#64748b" font-size="11" font-weight="500">2.02x</text><text x="378" y="781" fill="#64748b" font-size="11" font-weight="500">8.9 GB/s</text><text x="463" y="781" fill="#1d4ed8" font-size="11" font-weight="bold">20.1 GB/s</text><text x="600" y="781" fill="#64748b" font-size="10.5" font-weight="500" text-anchor="end">0.44x</text><rect width="564" height="23" x="48" y="789" fill="#f8fafc" rx="4"/><text x="60" y="806" fill="#0f172a" font-size="10.5" font-weight="600">basel_wind_f</text><text x="228" y="806" fill="#1d4ed8" font-size="11" font-weight="bold">2.34x</text><text x="303" y="806" fill="#64748b" font-size="11" font-weight="500">2.15x</text><text x="378" y="806" fill="#64748b" font-size="11" font-weight="500">9.0 GB/s</text><text x="463" y="806" fill="#1d4ed8" font-size="11" font-weight="bold">20.1 GB/s</text><text x="600" y="806" fill="#64748b" font-size="10.5" font-weight="500" text-anchor="end">0.45x</text><text x="60" y="831" fill="#0f172a" font-size="10.5" font-weight="600">bird_migration_f</text><text x="228" y="831" fill="#1d4ed8" font-size="11" font-weight="bold">3.96x</text><text x="303" y="831" fill="#64748b" font-size="11" font-weight="500">3.71x</text><text x="378" y="831" fill="#1d4ed8" font-size="11" font-weight="bold">38.7 GB/s</text><text x="463" y="831" fill="#64748b" font-size="11" font-weight="500">21.0 GB/s</text><text x="600" y="831" fill="#1e3a8a" font-size="10.5" font-weight="bold" text-anchor="end">+84%</text><rect width="564" height="23" x="48" y="839" fill="#f8fafc" rx="4"/><text x="60" y="856" fill="#0f172a" font-size="10.5" font-weight="600">bitcoin_f</text><text x="228" y="856" fill="#64748b" font-size="11" font-weight="500">1.05x</text><text x="303" y="856" fill="#1d4ed8" font-size="11" font-weight="bold">2.47x</text><text x="378" y="856" fill="#64748b" font-size="11" font-weight="500">2.2 GB/s</text><text x="463" y="856" fill="#1d4ed8" font-size="11" font-weight="bold">14.3 GB/s</text><text x="600" y="856" fill="#64748b" font-size="10.5" font-weight="500" text-anchor="end">0.15x</text><text x="60" y="881" fill="#0f172a" font-size="10.5" font-weight="600">bitcoin_transactions_f</text><text x="228" y="881" fill="#64748b" font-size="11" font-weight="500">1.93x</text><text x="303" y="881" fill="#1d4ed8" font-size="11" font-weight="bold">2.07x</text><text x="378" y="881" fill="#64748b" font-size="11" font-weight="500">2.2 GB/s</text><text x="463" y="881" fill="#1d4ed8" font-size="11" font-weight="bold">19.4 GB/s</text><text x="600" y="881" fill="#64748b" font-size="10.5" font-weight="500" text-anchor="end">0.11x</text><rect width="564" height="23" x="48" y="889" fill="#f8fafc" rx="4"/><text x="60" y="906" fill="#0f172a" font-size="10.5" font-weight="600">city_temperature_f</text><text x="228" y="906" fill="#1d4ed8" font-size="11" font-weight="bold">5.77x</text><text x="303" y="906" fill="#64748b" font-size="11" font-weight="500">5.77x</text><text x="378" y="906" fill="#64748b" font-size="11" font-weight="500">14.2 GB/s</text><text x="463" y="906" fill="#1d4ed8" font-size="11" font-weight="bold">19.9 GB/s</text><text x="600" y="906" fill="#64748b" font-size="10.5" font-weight="500" text-anchor="end">0.71x</text><text x="60" y="931" fill="#0f172a" font-size="10.5" font-weight="600">cms1</text><text x="228" y="931" fill="#64748b" font-size="11" font-weight="500">1.00x</text><text x="303" y="931" fill="#1d4ed8" font-size="11" font-weight="bold">1.53x</text><text x="378" y="931" fill="#1d4ed8" font-size="11" font-weight="bold">83.0 GB/s</text><text x="463" y="931" fill="#64748b" font-size="11" font-weight="500">18.7 GB/s</text><text x="600" y="931" fill="#1e3a8a" font-size="10.5" font-weight="bold" text-anchor="end">+344%</text><rect width="564" height="23" x="48" y="939" fill="#f8fafc" rx="4"/><text x="60" y="956" fill="#0f172a" font-size="10.5" font-weight="600">cms25</text><text x="228" y="956" fill="#1d4ed8" font-size="11" font-weight="bold">1.52x</text><text x="303" y="956" fill="#64748b" font-size="11" font-weight="500">1.50x</text><text x="378" y="956" fill="#64748b" font-size="11" font-weight="500">15.2 GB/s</text><text x="463" y="956" fill="#1d4ed8" font-size="11" font-weight="bold">18.7 GB/s</text><text x="600" y="956" fill="#64748b" font-size="10.5" font-weight="500" text-anchor="end">0.81x</text><text x="60" y="981" fill="#0f172a" font-size="10.5" font-weight="600">cms9</text><text x="228" y="981" fill="#64748b" font-size="11" font-weight="500">5.77x</text><text x="303" y="981" fill="#1d4ed8" font-size="11" font-weight="bold">6.25x</text><text x="378" y="981" fill="#64748b" font-size="11" font-weight="500">14.5 GB/s</text><text x="463" y="981" fill="#1d4ed8" font-size="11" font-weight="bold">20.9 GB/s</text><text x="600" y="981" fill="#64748b" font-size="10.5" font-weight="500" text-anchor="end">0.69x</text><rect width="564" height="23" x="48" y="989" fill="#f8fafc" rx="4"/><text x="60" y="1006" fill="#0f172a" font-size="10.5" font-weight="600">food_prices</text><text x="228" y="1006" fill="#1d4ed8" font-size="11" font-weight="bold">2.77x</text><text x="303" y="1006" fill="#64748b" font-size="11" font-weight="500">2.70x</text><text x="378" y="1006" fill="#1d4ed8" font-size="11" font-weight="bold">14.8 GB/s</text><text x="463" y="1006" fill="#64748b" font-size="11" font-weight="500">10.2 GB/s</text><text x="600" y="1006" fill="#1e3a8a" font-size="10.5" font-weight="bold" text-anchor="end">+45%</text><text x="60" y="1031" fill="#0f172a" font-size="10.5" font-weight="600">gov10</text><text x="228" y="1031" fill="#1d4ed8" font-size="11" font-weight="bold">2.13x</text><text x="303" y="1031" fill="#64748b" font-size="11" font-weight="500">1.96x</text><text x="378" y="1031" fill="#64748b" font-size="11" font-weight="500">15.1 GB/s</text><text x="463" y="1031" fill="#1d4ed8" font-size="11" font-weight="bold">15.9 GB/s</text><text x="600" y="1031" fill="#64748b" font-size="10.5" font-weight="500" text-anchor="end">0.95x</text><rect width="564" height="23" x="48" y="1039" fill="#f8fafc" rx="4"/><text x="60" y="1056" fill="#0f172a" font-size="10.5" font-weight="600">gov26</text><text x="228" y="1056" fill="#1d4ed8" font-size="11" font-weight="bold">744.73x</text><text x="303" y="1056" fill="#64748b" font-size="11" font-weight="500">682.67x</text><text x="378" y="1056" fill="#1d4ed8" font-size="11" font-weight="bold">53.0 GB/s</text><text x="463" y="1056" fill="#64748b" font-size="11" font-weight="500">22.3 GB/s</text><text x="600" y="1056" fill="#1e3a8a" font-size="10.5" font-weight="bold" text-anchor="end">+138%</text><text x="60" y="1081" fill="#0f172a" font-size="10.5" font-weight="600">gov30</text><text x="228" y="1081" fill="#64748b" font-size="11" font-weight="500">154.57x</text><text x="303" y="1081" fill="#1d4ed8" font-size="11" font-weight="bold">160.63x</text><text x="378" y="1081" fill="#1d4ed8" font-size="11" font-weight="bold">62.5 GB/s</text><text x="463" y="1081" fill="#64748b" font-size="11" font-weight="500">20.0 GB/s</text><text x="600" y="1081" fill="#1e3a8a" font-size="10.5" font-weight="bold" text-anchor="end">+212%</text><rect width="564" height="23" x="48" y="1089" fill="#f8fafc" rx="4"/><text x="60" y="1106" fill="#0f172a" font-size="10.5" font-weight="600">gov31</text><text x="228" y="1106" fill="#64748b" font-size="11" font-weight="500">356.17x</text><text x="303" y="1106" fill="#1d4ed8" font-size="11" font-weight="bold">409.60x</text><text x="378" y="1106" fill="#1d4ed8" font-size="11" font-weight="bold">62.6 GB/s</text><text x="463" y="1106" fill="#64748b" font-size="11" font-weight="500">23.4 GB/s</text><text x="600" y="1106" fill="#1e3a8a" font-size="10.5" font-weight="bold" text-anchor="end">+168%</text></g><g class="subtable"><rect width="564" height="30" x="628" y="686" fill="#f1f5f9" rx="5"/><text x="640" y="705" fill="#334155" font-size="10" font-weight="bold">Dataset Name</text><text x="808" y="705" fill="#334155" font-size="10" font-weight="bold">fastalp Ratio</text><text x="883" y="705" fill="#334155" font-size="10" font-weight="bold">C++ Ratio</text><text x="958" y="705" fill="#334155" font-size="10" font-weight="bold">fastalp Dec</text><text x="1043" y="705" fill="#334155" font-size="10" font-weight="bold">C++ Dec</text><text x="1180" y="705" fill="#334155" font-size="10" font-weight="bold" text-anchor="end">Speedup</text><text x="640" y="731" fill="#0f172a" font-size="10.5" font-weight="600">gov40</text><text x="808" y="731" fill="#64748b" font-size="11" font-weight="500">190.51x</text><text x="883" y="731" fill="#1d4ed8" font-size="11" font-weight="bold">199.80x</text><text x="958" y="731" fill="#1d4ed8" font-size="11" font-weight="bold">60.4 GB/s</text><text x="1043" y="731" fill="#64748b" font-size="11" font-weight="500">23.6 GB/s</text><text x="1180" y="731" fill="#1e3a8a" font-size="10.5" font-weight="bold" text-anchor="end">+155%</text><rect width="564" height="23" x="628" y="739" fill="#f8fafc" rx="4"/><text x="640" y="756" fill="#0f172a" font-size="10.5" font-weight="600">medicare1</text><text x="808" y="756" fill="#64748b" font-size="11" font-weight="500">1.00x</text><text x="883" y="756" fill="#1d4ed8" font-size="11" font-weight="bold">1.56x</text><text x="958" y="756" fill="#1d4ed8" font-size="11" font-weight="bold">55.9 GB/s</text><text x="1043" y="756" fill="#64748b" font-size="11" font-weight="500">18.9 GB/s</text><text x="1180" y="756" fill="#1e3a8a" font-size="10.5" font-weight="bold" text-anchor="end">+196%</text><text x="640" y="781" fill="#0f172a" font-size="10.5" font-weight="600">medicare9</text><text x="808" y="781" fill="#64748b" font-size="11" font-weight="500">5.77x</text><text x="883" y="781" fill="#1d4ed8" font-size="11" font-weight="bold">6.20x</text><text x="958" y="781" fill="#64748b" font-size="11" font-weight="500">14.1 GB/s</text><text x="1043" y="781" fill="#1d4ed8" font-size="11" font-weight="bold">20.7 GB/s</text><text x="1180" y="781" fill="#64748b" font-size="10.5" font-weight="500" text-anchor="end">0.68x</text><rect width="564" height="23" x="628" y="789" fill="#f8fafc" rx="4"/><text x="640" y="806" fill="#0f172a" font-size="10.5" font-weight="600">neon_air_pressure</text><text x="808" y="806" fill="#1d4ed8" font-size="11" font-weight="bold">6.31x</text><text x="883" y="806" fill="#64748b" font-size="11" font-weight="500">3.92x</text><text x="958" y="806" fill="#64748b" font-size="11" font-weight="500">8.7 GB/s</text><text x="1043" y="806" fill="#1d4ed8" font-size="11" font-weight="bold">22.7 GB/s</text><text x="1180" y="806" fill="#64748b" font-size="10.5" font-weight="500" text-anchor="end">0.38x</text><text x="640" y="831" fill="#0f172a" font-size="10.5" font-weight="600">neon_bio_temp_c</text><text x="808" y="831" fill="#1d4ed8" font-size="11" font-weight="bold">6.35x</text><text x="883" y="831" fill="#64748b" font-size="11" font-weight="500">6.34x</text><text x="958" y="831" fill="#64748b" font-size="11" font-weight="500">14.1 GB/s</text><text x="1043" y="831" fill="#1d4ed8" font-size="11" font-weight="bold">20.5 GB/s</text><text x="1180" y="831" fill="#64748b" font-size="10.5" font-weight="500" text-anchor="end">0.69x</text><rect width="564" height="23" x="628" y="839" fill="#f8fafc" rx="4"/><text x="640" y="856" fill="#0f172a" font-size="10.5" font-weight="600">neon_dew_point_temp</text><text x="808" y="856" fill="#1d4ed8" font-size="11" font-weight="bold">7.00x</text><text x="883" y="856" fill="#64748b" font-size="11" font-weight="500">4.72x</text><text x="958" y="856" fill="#64748b" font-size="11" font-weight="500">8.6 GB/s</text><text x="1043" y="856" fill="#1d4ed8" font-size="11" font-weight="bold">20.4 GB/s</text><text x="1180" y="856" fill="#64748b" font-size="10.5" font-weight="500" text-anchor="end">0.42x</text><text x="640" y="881" fill="#0f172a" font-size="10.5" font-weight="600">neon_pm10_dust</text><text x="808" y="881" fill="#1d4ed8" font-size="11" font-weight="bold">7.92x</text><text x="883" y="881" fill="#64748b" font-size="11" font-weight="500">7.91x</text><text x="958" y="881" fill="#1d4ed8" font-size="11" font-weight="bold">22.4 GB/s</text><text x="1043" y="881" fill="#64748b" font-size="11" font-weight="500">21.5 GB/s</text><text x="1180" y="881" fill="#1e3a8a" font-size="10.5" font-weight="bold" text-anchor="end">+4%</text><rect width="564" height="23" x="628" y="889" fill="#f8fafc" rx="4"/><text x="640" y="906" fill="#0f172a" font-size="10.5" font-weight="600">neon_wind_dir</text><text x="808" y="906" fill="#1d4ed8" font-size="11" font-weight="bold">3.98x</text><text x="883" y="906" fill="#64748b" font-size="11" font-weight="500">3.98x</text><text x="958" y="906" fill="#1d4ed8" font-size="11" font-weight="bold">38.8 GB/s</text><text x="1043" y="906" fill="#64748b" font-size="11" font-weight="500">22.6 GB/s</text><text x="1180" y="906" fill="#1e3a8a" font-size="10.5" font-weight="bold" text-anchor="end">+71%</text><text x="640" y="931" fill="#0f172a" font-size="10.5" font-weight="600">nyc29</text><text x="808" y="931" fill="#1d4ed8" font-size="11" font-weight="bold">1.52x</text><text x="883" y="931" fill="#64748b" font-size="11" font-weight="500">1.51x</text><text x="958" y="931" fill="#64748b" font-size="11" font-weight="500">15.6 GB/s</text><text x="1043" y="931" fill="#1d4ed8" font-size="11" font-weight="bold">19.8 GB/s</text><text x="1180" y="931" fill="#64748b" font-size="10.5" font-weight="500" text-anchor="end">0.79x</text><rect width="564" height="23" x="628" y="939" fill="#f8fafc" rx="4"/><text x="640" y="956" fill="#0f172a" font-size="10.5" font-weight="600">poi_lat</text><text x="808" y="956" fill="#64748b" font-size="11" font-weight="500">1.00x</text><text x="883" y="956" fill="#1d4ed8" font-size="11" font-weight="bold">1.11x</text><text x="958" y="956" fill="#1d4ed8" font-size="11" font-weight="bold">45.5 GB/s</text><text x="1043" y="956" fill="#64748b" font-size="11" font-weight="500">13.0 GB/s</text><text x="1180" y="956" fill="#1e3a8a" font-size="10.5" font-weight="bold" text-anchor="end">+249%</text><text x="640" y="981" fill="#0f172a" font-size="10.5" font-weight="600">poi_lon</text><text x="808" y="981" fill="#64748b" font-size="11" font-weight="500">1.00x</text><text x="883" y="981" fill="#1d4ed8" font-size="11" font-weight="bold">1.13x</text><text x="958" y="981" fill="#1d4ed8" font-size="11" font-weight="bold">83.7 GB/s</text><text x="1043" y="981" fill="#64748b" font-size="11" font-weight="500">13.9 GB/s</text><text x="1180" y="981" fill="#1e3a8a" font-size="10.5" font-weight="bold" text-anchor="end">+502%</text><rect width="564" height="23" x="628" y="989" fill="#f8fafc" rx="4"/><text x="640" y="1006" fill="#0f172a" font-size="10.5" font-weight="600">ssd_hdd_benchmarks_f</text><text x="808" y="1006" fill="#1d4ed8" font-size="11" font-weight="bold">3.96x</text><text x="883" y="1006" fill="#64748b" font-size="11" font-weight="500">3.74x</text><text x="958" y="1006" fill="#1d4ed8" font-size="11" font-weight="bold">38.8 GB/s</text><text x="1043" y="1006" fill="#64748b" font-size="11" font-weight="500">20.6 GB/s</text><text x="1180" y="1006" fill="#1e3a8a" font-size="10.5" font-weight="bold" text-anchor="end">+88%</text><text x="640" y="1031" fill="#0f172a" font-size="10.5" font-weight="600">stocks_de</text><text x="808" y="1031" fill="#1d4ed8" font-size="11" font-weight="bold">6.35x</text><text x="883" y="1031" fill="#64748b" font-size="11" font-weight="500">6.11x</text><text x="958" y="1031" fill="#64748b" font-size="11" font-weight="500">14.3 GB/s</text><text x="1043" y="1031" fill="#1d4ed8" font-size="11" font-weight="bold">20.8 GB/s</text><text x="1180" y="1031" fill="#64748b" font-size="10.5" font-weight="500" text-anchor="end">0.69x</text><rect width="564" height="23" x="628" y="1039" fill="#f8fafc" rx="4"/><text x="640" y="1056" fill="#0f172a" font-size="10.5" font-weight="600">stocks_uk</text><text x="808" y="1056" fill="#1d4ed8" font-size="11" font-weight="bold">7.04x</text><text x="883" y="1056" fill="#64748b" font-size="11" font-weight="500">7.04x</text><text x="958" y="1056" fill="#64748b" font-size="11" font-weight="500">14.3 GB/s</text><text x="1043" y="1056" fill="#1d4ed8" font-size="11" font-weight="bold">20.8 GB/s</text><text x="1180" y="1056" fill="#64748b" font-size="10.5" font-weight="500" text-anchor="end">0.69x</text><text x="640" y="1081" fill="#0f172a" font-size="10.5" font-weight="600">stocks_usa_c</text><text x="808" y="1081" fill="#1d4ed8" font-size="11" font-weight="bold">9.03x</text><text x="883" y="1081" fill="#64748b" font-size="11" font-weight="500">9.02x</text><text x="958" y="1081" fill="#64748b" font-size="11" font-weight="500">14.6 GB/s</text><text x="1043" y="1081" fill="#1d4ed8" font-size="11" font-weight="bold">20.8 GB/s</text><text x="1180" y="1081" fill="#64748b" font-size="10.5" font-weight="500" text-anchor="end">0.70x</text><rect width="564" height="27" x="628" y="1089" fill="#eff6ff" stroke="#bfdbfe" rx="4"/><text x="640" y="1106" fill="#1d4ed8" font-size="11" font-weight="bold">31 Datasets Geometric Mean</text><text x="808" y="1106" fill="#475569" font-size="11" font-weight="bold">5.31x</text><text x="883" y="1106" fill="#1d4ed8" font-size="11" font-weight="bold">5.52x</text><text x="958" y="1106" fill="#1d4ed8" font-size="11" font-weight="bold">20.3 GB/s</text><text x="1043" y="1106" fill="#475569" font-size="11" font-weight="bold">19.0 GB/s</text><text x="1180" y="1106" fill="#1e3a8a" font-size="11" font-weight="bold" text-anchor="end">+6.4% Speed</text></g></g><text x="36" y="1190" fill="#0f172a" font-size="16" font-weight="bold">Industrial Time-Series Scenario Evaluation</text><text x="36" y="1208" fill="#475569" font-size="12">Covering IoT telemetry, physical monotonic waveforms, high-frequency finance, and steady constants</text><g class="scenario-card"><rect width="576" height="228" x="32" y="1222" fill="#fff" stroke="#cbd5e1" stroke-width="1.2" rx="10"/><path fill="#f8fafc" d="M32 1232q0-10 10-10h556q10 0 10 10v38H32Z"/><text x="50" y="1244" fill="#0f172a" font-size="13" font-weight="bold">IoT &amp; Environmental Telemetry</text><text x="50" y="1259" fill="#475569" font-size="11">NEON/NOAA air pressure, temperature, water level (1024 pts)</text><rect width="84" height="22" x="508" y="1234" fill="#f1f5f9" rx="4"/><text x="550" y="1249" fill="#1e293b" font-size="10.5" font-weight="bold" text-anchor="middle">Telemetry</text><path stroke="#cbd5e1" d="M32 1270h576"/><rect width="556" height="26" x="42" y="1280" fill="#f1f5f9" rx="5"/><text x="52" y="1297" fill="#334155" font-size="10.5" font-weight="bold">Algorithm</text><text x="197" y="1297" fill="#334155" font-size="10.5" font-weight="bold">Decode</text><text x="297" y="1297" fill="#334155" font-size="10.5" font-weight="bold">Encode</text><text x="392" y="1297" fill="#334155" font-size="10.5" font-weight="bold">Ratio</text><text x="588" y="1297" fill="#334155" font-size="10.5" font-weight="bold" text-anchor="end">Comparison</text><rect width="556" height="28" x="42" y="1316" fill="#f0f7ff" rx="5"/><text x="52" y="1334" fill="#1d4ed8" font-size="12" font-weight="bold">fastalp (Rust)</text><text x="197" y="1334" fill="#1d4ed8" font-size="12" font-weight="bold">22.8 GB/s</text><text x="297" y="1334" fill="#92400e" font-size="12" font-weight="bold">4.8 GB/s</text><text x="392" y="1334" fill="#1d4ed8" font-size="12" font-weight="bold">7.91x</text><text x="588" y="1334" fill="#1e3a8a" font-size="11.5" font-weight="bold" text-anchor="end">Leader (Exact)</text><rect width="556" height="28" x="42" y="1346" fill="#f8fafc" rx="5"/><text x="52" y="1364" fill="#0f172a" font-size="12" font-weight="600">C++ ALP</text><text x="197" y="1364" fill="#1e293b" font-size="12" font-weight="600">21.8 GB/s</text><text x="297" y="1364" fill="#475569" font-size="12" font-weight="500">0.8 GB/s</text><text x="392" y="1364" fill="#1e293b" font-size="12" font-weight="600">7.86x</text><text x="588" y="1364" fill="#475569" font-size="11.5" font-weight="bold" text-anchor="end">Baseline (Slow)</text><text x="52" y="1394" fill="#0f172a" font-size="12" font-weight="600">Pcodec (pco)</text><text x="197" y="1394" fill="#475569" font-size="12" font-weight="600">1.58 GB/s</text><text x="297" y="1394" fill="#475569" font-size="12" font-weight="500">0.2 GB/s</text><text x="392" y="1394" fill="#475569" font-size="12" font-weight="600">7.82x</text><text x="588" y="1394" fill="#475569" font-size="11.5" font-weight="bold" text-anchor="end">0.07x Decode</text><rect width="556" height="28" x="42" y="1406" fill="#f8fafc" rx="5"/><text x="52" y="1424" fill="#0f172a" font-size="12" font-weight="600">LZ4</text><text x="197" y="1424" fill="#475569" font-size="12" font-weight="600">11.3 GB/s</text><text x="297" y="1424" fill="#475569" font-size="12" font-weight="500">3.8 GB/s</text><text x="392" y="1424" fill="#475569" font-size="12" font-weight="600">1.25x</text><text x="588" y="1424" fill="#475569" font-size="11.5" font-weight="bold" text-anchor="end">1.25x Ratio</text></g><g class="scenario-card"><rect width="576" height="228" x="632" y="1222" fill="#fff" stroke="#cbd5e1" stroke-width="1.2" rx="10"/><path fill="#f8fafc" d="M632 1232q0-10 10-10h556q10 0 10 10v38H632Z"/><text x="650" y="1244" fill="#0f172a" font-size="13" font-weight="bold">Physical Waveforms &amp; Trends</text><text x="650" y="1259" fill="#475569" font-size="11">Monotonic ramp, USGS river discharge &amp; river stage (1024 pts)</text><rect width="84" height="22" x="1108" y="1234" fill="#f1f5f9" rx="4"/><text x="1150" y="1249" fill="#1e293b" font-size="10.5" font-weight="bold" text-anchor="middle">Delta-ALP</text><path stroke="#cbd5e1" d="M632 1270h576"/><rect width="556" height="26" x="642" y="1280" fill="#f1f5f9" rx="5"/><text x="652" y="1297" fill="#334155" font-size="10.5" font-weight="bold">Algorithm</text><text x="797" y="1297" fill="#334155" font-size="10.5" font-weight="bold">Decode</text><text x="897" y="1297" fill="#334155" font-size="10.5" font-weight="bold">Encode</text><text x="992" y="1297" fill="#334155" font-size="10.5" font-weight="bold">Ratio</text><text x="1188" y="1297" fill="#334155" font-size="10.5" font-weight="bold" text-anchor="end">Comparison</text><rect width="556" height="28" x="642" y="1316" fill="#f0f7ff" rx="5"/><text x="652" y="1334" fill="#1d4ed8" font-size="12" font-weight="bold">fastalp (Delta)</text><text x="797" y="1334" fill="#1d4ed8" font-size="12" font-weight="bold">40.7 GB/s</text><text x="897" y="1334" fill="#92400e" font-size="12" font-weight="bold">3.1 GB/s</text><text x="992" y="1334" fill="#1d4ed8" font-size="12" font-weight="bold">431.2x</text><text x="1188" y="1334" fill="#1e3a8a" font-size="11.5" font-weight="bold" text-anchor="end">458x vs C++</text><rect width="556" height="28" x="642" y="1346" fill="#f8fafc" rx="5"/><text x="652" y="1364" fill="#0f172a" font-size="12" font-weight="600">Pcodec (pco)</text><text x="797" y="1364" fill="#475569" font-size="12" font-weight="600">0.85 GB/s</text><text x="897" y="1364" fill="#475569" font-size="12" font-weight="500">0.1 GB/s</text><text x="992" y="1364" fill="#475569" font-size="12" font-weight="600">44.5x</text><text x="1188" y="1364" fill="#475569" font-size="11.5" font-weight="bold" text-anchor="end">9.7x Size</text><text x="652" y="1394" fill="#0f172a" font-size="12" font-weight="600">Zstd (Level 3)</text><text x="797" y="1394" fill="#475569" font-size="12" font-weight="600">0.90 GB/s</text><text x="897" y="1394" fill="#475569" font-size="12" font-weight="500">0.3 GB/s</text><text x="992" y="1394" fill="#475569" font-size="12" font-weight="600">6.93x</text><text x="1188" y="1394" fill="#475569" font-size="11.5" font-weight="bold" text-anchor="end">45x Decode</text><rect width="556" height="28" x="642" y="1406" fill="#f8fafc" rx="5"/><text x="652" y="1424" fill="#0f172a" font-size="12" font-weight="600">C++ ALP</text><text x="797" y="1424" fill="#991b1b" font-size="12" font-weight="600">0.58 GB/s</text><text x="897" y="1424" fill="#475569" font-size="12" font-weight="500">0.4 GB/s</text><text x="992" y="1424" fill="#991b1b" font-size="12" font-weight="600">0.94x</text><text x="1188" y="1424" fill="#475569" font-size="11.5" font-weight="bold" text-anchor="end">Negative Exp</text></g><g class="scenario-card"><rect width="576" height="228" x="32" y="1466" fill="#fff" stroke="#cbd5e1" stroke-width="1.2" rx="10"/><path fill="#f8fafc" d="M32 1476q0-10 10-10h556q10 0 10 10v38H32Z"/><text x="50" y="1488" fill="#0f172a" font-size="13" font-weight="bold">Financial Stocks &amp; Quant Trades</text><text x="50" y="1503" fill="#475569" font-size="11">High-frequency trade prices: US, DE, UK stocks (1024 pts)</text><rect width="84" height="22" x="508" y="1478" fill="#f1f5f9" rx="4"/><text x="550" y="1493" fill="#1e293b" font-size="10.5" font-weight="bold" text-anchor="middle">Finance</text><path stroke="#cbd5e1" d="M32 1514h576"/><rect width="556" height="26" x="42" y="1524" fill="#f1f5f9" rx="5"/><text x="52" y="1541" fill="#334155" font-size="10.5" font-weight="bold">Algorithm</text><text x="197" y="1541" fill="#334155" font-size="10.5" font-weight="bold">Decode</text><text x="297" y="1541" fill="#334155" font-size="10.5" font-weight="bold">Encode</text><text x="392" y="1541" fill="#334155" font-size="10.5" font-weight="bold">Ratio</text><text x="588" y="1541" fill="#334155" font-size="10.5" font-weight="bold" text-anchor="end">Comparison</text><rect width="556" height="28" x="42" y="1560" fill="#f0f7ff" rx="5"/><text x="52" y="1578" fill="#1d4ed8" font-size="12" font-weight="bold">fastalp (Rust)</text><text x="197" y="1578" fill="#1d4ed8" font-size="12" font-weight="bold">24.2 GB/s</text><text x="297" y="1578" fill="#92400e" font-size="12" font-weight="bold">4.2 GB/s</text><text x="392" y="1578" fill="#1d4ed8" font-size="12" font-weight="bold">10.41x</text><text x="588" y="1578" fill="#1e3a8a" font-size="11.5" font-weight="bold" text-anchor="end">+14% Decode</text><rect width="556" height="28" x="42" y="1590" fill="#f8fafc" rx="5"/><text x="52" y="1608" fill="#0f172a" font-size="12" font-weight="600">C++ ALP</text><text x="197" y="1608" fill="#1e293b" font-size="12" font-weight="600">21.2 GB/s</text><text x="297" y="1608" fill="#475569" font-size="12" font-weight="500">1.2 GB/s</text><text x="392" y="1608" fill="#1e293b" font-size="12" font-weight="600">4.19x</text><text x="588" y="1608" fill="#475569" font-size="11.5" font-weight="bold" text-anchor="end">4.19x Ratio</text><text x="52" y="1638" fill="#0f172a" font-size="12" font-weight="600">Snappy (snap)</text><text x="197" y="1638" fill="#475569" font-size="12" font-weight="600">5.62 GB/s</text><text x="297" y="1638" fill="#475569" font-size="12" font-weight="500">2.8 GB/s</text><text x="392" y="1638" fill="#475569" font-size="12" font-weight="600">1.28x</text><text x="588" y="1638" fill="#475569" font-size="11.5" font-weight="bold" text-anchor="end">1.28x Ratio</text><rect width="556" height="28" x="42" y="1650" fill="#f8fafc" rx="5"/><text x="52" y="1668" fill="#0f172a" font-size="12" font-weight="600">Gorilla (XOR)</text><text x="197" y="1668" fill="#475569" font-size="12" font-weight="600">0.34 GB/s</text><text x="297" y="1668" fill="#475569" font-size="12" font-weight="500">0.3 GB/s</text><text x="392" y="1668" fill="#475569" font-size="12" font-weight="600">2.12x</text><text x="588" y="1668" fill="#475569" font-size="11.5" font-weight="bold" text-anchor="end">71x Decode</text></g><g class="scenario-card"><rect width="576" height="228" x="632" y="1466" fill="#fff" stroke="#cbd5e1" stroke-width="1.2" rx="10"/><path fill="#f8fafc" d="M632 1476q0-10 10-10h556q10 0 10 10v38H632Z"/><text x="650" y="1488" fill="#0f172a" font-size="13" font-weight="bold">Steady Constants &amp; Zero-Entropy</text><text x="650" y="1503" fill="#475569" font-size="11">Fixed-range sensors, error-free health monitoring (1024 pts)</text><rect width="84" height="22" x="1108" y="1478" fill="#f1f5f9" rx="4"/><text x="1150" y="1493" fill="#1e293b" font-size="10.5" font-weight="bold" text-anchor="middle">Constant</text><path stroke="#cbd5e1" d="M632 1514h576"/><rect width="556" height="26" x="642" y="1524" fill="#f1f5f9" rx="5"/><text x="652" y="1541" fill="#334155" font-size="10.5" font-weight="bold">Algorithm</text><text x="797" y="1541" fill="#334155" font-size="10.5" font-weight="bold">Decode</text><text x="897" y="1541" fill="#334155" font-size="10.5" font-weight="bold">Encode</text><text x="992" y="1541" fill="#334155" font-size="10.5" font-weight="bold">Ratio</text><text x="1188" y="1541" fill="#334155" font-size="10.5" font-weight="bold" text-anchor="end">Comparison</text><rect width="556" height="28" x="642" y="1560" fill="#f0f7ff" rx="5"/><text x="652" y="1578" fill="#1d4ed8" font-size="12" font-weight="bold">fastalp (Rust)</text><text x="797" y="1578" fill="#1d4ed8" font-size="12" font-weight="bold">88.9 GB/s</text><text x="897" y="1578" fill="#92400e" font-size="12" font-weight="bold">24.6 GB/s</text><text x="992" y="1578" fill="#1d4ed8" font-size="12" font-weight="bold">744.7x</text><text x="1188" y="1578" fill="#1e3a8a" font-size="11.5" font-weight="bold" text-anchor="end">3.8x vs C++</text><rect width="556" height="28" x="642" y="1590" fill="#f8fafc" rx="5"/><text x="652" y="1608" fill="#0f172a" font-size="12" font-weight="600">C++ ALP</text><text x="797" y="1608" fill="#1e293b" font-size="12" font-weight="600">23.5 GB/s</text><text x="897" y="1608" fill="#475569" font-size="12" font-weight="500">7.2 GB/s</text><text x="992" y="1608" fill="#1e293b" font-size="12" font-weight="600">455.1x</text><text x="1188" y="1608" fill="#475569" font-size="11.5" font-weight="bold" text-anchor="end">Baseline</text><text x="652" y="1638" fill="#0f172a" font-size="12" font-weight="600">Zstd (Level 3)</text><text x="797" y="1638" fill="#475569" font-size="12" font-weight="600">3.37 GB/s</text><text x="897" y="1638" fill="#475569" font-size="12" font-weight="500">3.5 GB/s</text><text x="992" y="1638" fill="#475569" font-size="12" font-weight="600">292.6x</text><text x="1188" y="1638" fill="#475569" font-size="11.5" font-weight="bold" text-anchor="end">26x Decode</text><rect width="556" height="28" x="642" y="1650" fill="#f8fafc" rx="5"/><text x="652" y="1668" fill="#0f172a" font-size="12" font-weight="600">Pcodec (pco)</text><text x="797" y="1668" fill="#475569" font-size="12" font-weight="600">4.82 GB/s</text><text x="897" y="1668" fill="#475569" font-size="12" font-weight="500">0.5 GB/s</text><text x="992" y="1668" fill="#475569" font-size="12" font-weight="600">282.5x</text><text x="1188" y="1668" fill="#475569" font-size="11.5" font-weight="bold" text-anchor="end">18x Decode</text></g><text x="620" y="1720" fill="#475569" font-size="11.5" font-weight="500" text-anchor="middle">Note: Overall decode/encode speeds and compression ratios are calculated using Geometric Mean across all 31 datasets. Measured directly on Apple M2 Max with C++ ALP official source. Exact IEEE 754 bitwise lossless.</text></svg>