<svg xmlns="http://www.w3.org/2000/svg" viewBox="0 0 720 2380"><defs><linearGradient id="wedb-blue-grad" x1="0%" x2="100%" y1="0%" y2="0%"><stop offset="0%" stop-color="#1d4ed8"/><stop offset="100%" stop-color="#3b82f6"/></linearGradient><linearGradient id="redis-gray-grad" x1="0%" x2="100%" y1="0%" y2="0%"><stop offset="0%" stop-color="#94a3b8"/><stop offset="100%" stop-color="#64748b"/></linearGradient><linearGradient id="card-bg-grad" x1="0%" x2="0%" y1="0%" y2="100%"><stop offset="0%" stop-color="#f8fafc"/><stop offset="100%" stop-color="#f1f5f9"/></linearGradient></defs><style>.txt{font-family:-apple-system,BlinkMacSystemFont,&quot;Segoe UI&quot;,Roboto,&quot;PingFang SC&quot;,&quot;Hiragino Sans GB&quot;,&quot;Microsoft YaHei&quot;,sans-serif}.card-title,.legend-tag{font-weight:700}.legend-tag{font-size:12px}.card-title{font-size:10.5px;fill:#64748b;letter-spacing:.3px}.card-num{font-size:17px;font-weight:800}.card-sub{font-size:10.5px;font-weight:700;fill:#2563eb}.grp-title{font-size:11px;font-weight:800;fill:#1e293b;letter-spacing:.2px}.grp-cnt{font-size:9.5px;font-weight:700;fill:#64748b;font-family:ui-monospace,SFMono-Regular,Menlo,monospace}.cmd-name,.speedup-badge{font-size:11.5px;font-weight:800}.cmd-name{fill:#0f172a;font-family:ui-monospace,SFMono-Regular,Menlo,monospace}.speedup-badge{fill:#2563eb}.bar-text,.bar-text-blue{font-size:8.5px;font-weight:700;fill:#fff}.bar-text-blue{fill:#2563eb}.bar-text-muted{font-size:8px;font-weight:600;fill:#64748b}</style><text x="360" y="34" class="txt" style="font-size:21px;font-weight:800;fill:#0f172a;letter-spacing:.3px" text-anchor="middle">性能对比测试：wedb_embed vs Redis</text><g transform="translate(255 46)"><rect width="12" height="12" y="2" fill="url(#wedb-blue-grad)" rx="3"/><text x="18" y="12" fill="#2563eb" class="txt legend-tag">wedb_embed</text><rect width="12" height="12" x="125" y="2" fill="url(#redis-gray-grad)" rx="3"/><text x="143" y="12" fill="#64748b" class="txt legend-tag">Redis</text></g><text x="360" y="80" class="txt" style="font-size:11.5px;font-weight:500;fill:#64748b" text-anchor="middle">2,000,000 条全格式结构化数据 ｜ 原始未压缩载荷 1749 MB ｜ 真实物理落盘与内存实测</text><g transform="translate(0 96)"><rect width="165" height="68" x="12" fill="url(#card-bg-grad)" stroke="#e2e8f0" rx="8"/><text x="22" y="19" class="txt card-title">综合性能提升</text><text x="22" y="42" fill="#2563eb" class="txt card-num">40.7x</text><text x="22" y="58" class="txt card-sub">总吞吐量领先</text><rect width="165" height="68" x="189" fill="url(#card-bg-grad)" stroke="#e2e8f0" rx="8"/><text x="199" y="19" class="txt card-title">点查 P95 延迟</text><text x="199" y="42" class="txt card-num"><tspan fill="#2563eb">0.83 us</tspan> <tspan fill="#94a3b8" font-size="12" font-weight="600">/</tspan> <tspan fill="#64748b">41.8 us</tspan></text><text x="199" y="58" class="txt card-sub">快 50.2x</text><rect width="165" height="68" x="366" fill="url(#card-bg-grad)" stroke="#e2e8f0" rx="8"/><text x="376" y="19" class="txt card-title">磁盘占用</text><text x="376" y="42" class="txt card-num"><tspan fill="#2563eb">1.90 GB</tspan> <tspan fill="#94a3b8" font-size="12" font-weight="600">/</tspan> <tspan fill="#64748b">2.87 GB</tspan></text><text x="376" y="58" class="txt card-sub">节省 34%</text><rect width="165" height="68" x="543" fill="url(#card-bg-grad)" stroke="#e2e8f0" rx="8"/><text x="553" y="19" class="txt card-title">内存开销</text><text x="553" y="42" class="txt card-num"><tspan fill="#2563eb">408 MB</tspan> <tspan fill="#94a3b8" font-size="12" font-weight="600">/</tspan> <tspan fill="#64748b">1979 MB</tspan></text><text x="553" y="58" class="txt card-sub">节省 79%</text></g><g transform="translate(12 178)"><rect width="696" height="2186" fill="url(#card-bg-grad)" stroke="#e2e8f0" rx="10"/><text x="14" y="24" class="txt" style="font-size:13px;font-weight:800;fill:#0f172a;letter-spacing:.3px">全类型核心指令吞吐量对比 (万次/秒)</text><text x="14" y="38" class="txt" style="font-size:10.5px;font-weight:500;fill:#64748b">涵盖 14 大核心数据结构与官方扩展插件（JSON、向量检索、布隆/布谷鸟、T-Digest、时序）全部 90 项指令</text></g><g transform="translate(24 236)"><rect width="326" height="22" fill="#e2e8f0" fill-opacity=".65" stroke="#cbd5e1" stroke-width=".6" rx="4"/><rect width="3" height="14" x="5" y="4" fill="#2563eb" rx="1.5"/><text x="14" y="15" class="txt grp-title">String · 字符串与键值</text><text x="320" y="15" class="txt grp-cnt" text-anchor="end">11 ops</text></g><g transform="translate(24 264)"><text y="11" class="txt cmd-name">GET</text><text x="326" y="11" class="txt speedup-badge" text-anchor="end">50.2x</text><rect width="86" height="10" y="16" fill="url(#wedb-blue-grad)" rx="2.5"/><text x="80" y="24.5" class="txt bar-text" text-anchor="end">120 万/s (0.83 us)</text><rect width="7" height="6" y="28" fill="url(#redis-gray-grad)" rx="2"/><text x="13" y="33.5" class="txt bar-text-muted">2.4 万/s (41.8 us)</text></g><g transform="translate(24 304)"><text y="11" class="txt cmd-name">SET</text><text x="326" y="11" class="txt speedup-badge" text-anchor="end">5.2x</text><rect width="18" height="10" y="16" fill="url(#wedb-blue-grad)" rx="2.5"/><text x="24" y="24.5" class="txt bar-text-blue">11 万/s (9.1 us)</text><rect width="6" height="6" y="28" fill="url(#redis-gray-grad)" rx="2"/><text x="12" y="33.5" class="txt bar-text-muted">2.1 万/s (47.3 us)</text></g><g transform="translate(24 344)"><text y="11" class="txt cmd-name">MGET</text><text x="326" y="11" class="txt speedup-badge" text-anchor="end">17.9x</text><rect width="43" height="10" y="16" fill="url(#wedb-blue-grad)" rx="2.5"/><text x="49" y="24.5" class="txt bar-text-blue">41 万/s (2.4 us)</text><rect width="7" height="6" y="28" fill="url(#redis-gray-grad)" rx="2"/><text x="13" y="33.5" class="txt bar-text-muted">2.3 万/s (43.3 us)</text></g><g transform="translate(24 384)"><text y="11" class="txt cmd-name">MSET</text><text x="326" y="11" class="txt speedup-badge" text-anchor="end">1.0x</text><rect width="6" height="10" y="16" fill="url(#wedb-blue-grad)" rx="2.5"/><text x="12" y="24.5" class="txt bar-text-blue">1.9 万/s (52.2 us)</text><rect width="6" height="6" y="28" fill="url(#redis-gray-grad)" rx="2"/><text x="12" y="33.5" class="txt bar-text-muted">1.8 万/s (54.6 us)</text></g><g transform="translate(24 424)"><text y="11" class="txt cmd-name">INCRBY</text><text x="326" y="11" class="txt speedup-badge" text-anchor="end">82.8x</text><rect width="109" height="10" y="16" fill="url(#wedb-blue-grad)" rx="2.5"/><text x="103" y="24.5" class="txt bar-text" text-anchor="end">172 万/s (0.58 us)</text><rect width="6" height="6" y="28" fill="url(#redis-gray-grad)" rx="2"/><text x="12" y="33.5" class="txt bar-text-muted">2.1 万/s (48.1 us)</text></g><g transform="translate(24 464)"><text y="11" class="txt cmd-name">DECRBY</text><text x="326" y="11" class="txt speedup-badge" text-anchor="end">79.8x</text><rect width="109" height="10" y="16" fill="url(#wedb-blue-grad)" rx="2.5"/><text x="103" y="24.5" class="txt bar-text" text-anchor="end">174 万/s (0.58 us)</text><rect width="6" height="6" y="28" fill="url(#redis-gray-grad)" rx="2"/><text x="12" y="33.5" class="txt bar-text-muted">2.2 万/s (45.9 us)</text></g><g transform="translate(24 504)"><text y="11" class="txt cmd-name">APPEND</text><text x="326" y="11" class="txt speedup-badge" text-anchor="end">63.4x</text><rect width="90" height="10" y="16" fill="url(#wedb-blue-grad)" rx="2.5"/><text x="84" y="24.5" class="txt bar-text" text-anchor="end">128 万/s (0.78 us)</text><rect width="6" height="6" y="28" fill="url(#redis-gray-grad)" rx="2"/><text x="12" y="33.5" class="txt bar-text-muted">2.0 万/s (49.4 us)</text></g><g transform="translate(24 544)"><text y="11" class="txt cmd-name">STRLEN</text><text x="326" y="11" class="txt speedup-badge" text-anchor="end">168.1x</text><rect width="191" height="10" y="16" fill="url(#wedb-blue-grad)" rx="2.5"/><text x="185" y="24.5" class="txt bar-text" text-anchor="end">411 万/s (0.24 us)</text><rect width="7" height="6" y="28" fill="url(#redis-gray-grad)" rx="2"/><text x="13" y="33.5" class="txt bar-text-muted">2.4 万/s (40.9 us)</text></g><g transform="translate(24 584)"><text y="11" class="txt cmd-name">GETDEL</text><text x="326" y="11" class="txt speedup-badge" text-anchor="end">9.4x</text><rect width="17" height="10" y="16" fill="url(#wedb-blue-grad)" rx="2.5"/><text x="23" y="24.5" class="txt bar-text-blue">9.9 万/s (10.1 us)</text><rect width="4" height="6" y="28" fill="url(#redis-gray-grad)" rx="2"/><text x="10" y="33.5" class="txt bar-text-muted">1.1 万/s (94.5 us)</text></g><g transform="translate(24 624)"><text y="11" class="txt cmd-name">GETRANGE</text><text x="326" y="11" class="txt speedup-badge" text-anchor="end">171.3x</text><rect width="188" height="10" y="16" fill="url(#wedb-blue-grad)" rx="2.5"/><text x="182" y="24.5" class="txt bar-text" text-anchor="end">401 万/s (0.25 us)</text><rect width="7" height="6" y="28" fill="url(#redis-gray-grad)" rx="2"/><text x="13" y="33.5" class="txt bar-text-muted">2.3 万/s (42.8 us)</text></g><g transform="translate(24 664)"><text y="11" class="txt cmd-name">SETRANGE</text><text x="326" y="11" class="txt speedup-badge" text-anchor="end">75.9x</text><rect width="107" height="10" y="16" fill="url(#wedb-blue-grad)" rx="2.5"/><text x="101" y="24.5" class="txt bar-text" text-anchor="end">169 万/s (0.59 us)</text><rect width="6" height="6" y="28" fill="url(#redis-gray-grad)" rx="2"/><text x="12" y="33.5" class="txt bar-text-muted">2.2 万/s (45.0 us)</text></g><g transform="translate(24 716)"><rect width="326" height="22" fill="#e2e8f0" fill-opacity=".65" stroke="#cbd5e1" stroke-width=".6" rx="4"/><rect width="3" height="14" x="5" y="4" fill="#2563eb" rx="1.5"/><text x="14" y="15" class="txt grp-title">Hash · 哈希字典</text><text x="320" y="15" class="txt grp-cnt" text-anchor="end">10 ops</text></g><g transform="translate(24 744)"><text y="11" class="txt cmd-name">HGET</text><text x="326" y="11" class="txt speedup-badge" text-anchor="end">67.2x</text><rect width="96" height="10" y="16" fill="url(#wedb-blue-grad)" rx="2.5"/><text x="90" y="24.5" class="txt bar-text" text-anchor="end">143 万/s (0.70 us)</text><rect width="6" height="6" y="28" fill="url(#redis-gray-grad)" rx="2"/><text x="12" y="33.5" class="txt bar-text-muted">2.1 万/s (47.0 us)</text></g><g transform="translate(24 784)"><text y="11" class="txt cmd-name">HSET</text><text x="326" y="11" class="txt speedup-badge" text-anchor="end">16.0x</text><rect width="37" height="10" y="16" fill="url(#wedb-blue-grad)" rx="2.5"/><text x="43" y="24.5" class="txt bar-text-blue">33 万/s (3.0 us)</text><rect width="6" height="6" y="28" fill="url(#redis-gray-grad)" rx="2"/><text x="12" y="33.5" class="txt bar-text-muted">2.1 万/s (48.4 us)</text></g><g transform="translate(24 824)"><text y="11" class="txt cmd-name">HMGET</text><text x="326" y="11" class="txt speedup-badge" text-anchor="end">17.0x</text><rect width="40" height="10" y="16" fill="url(#wedb-blue-grad)" rx="2.5"/><text x="46" y="24.5" class="txt bar-text-blue">38 万/s (2.7 us)</text><rect width="6" height="6" y="28" fill="url(#redis-gray-grad)" rx="2"/><text x="12" y="33.5" class="txt bar-text-muted">2.2 万/s (45.3 us)</text></g><g transform="translate(24 864)"><text y="11" class="txt cmd-name">HEXISTS</text><text x="326" y="11" class="txt speedup-badge" text-anchor="end">71.7x</text><rect width="102" height="10" y="16" fill="url(#wedb-blue-grad)" rx="2.5"/><text x="96" y="24.5" class="txt bar-text" text-anchor="end">157 万/s (0.64 us)</text><rect width="6" height="6" y="28" fill="url(#redis-gray-grad)" rx="2"/><text x="12" y="33.5" class="txt bar-text-muted">2.2 万/s (45.7 us)</text></g><g transform="translate(24 904)"><text y="11" class="txt cmd-name">HLEN</text><text x="326" y="11" class="txt speedup-badge" text-anchor="end">90.7x</text><rect width="124" height="10" y="16" fill="url(#wedb-blue-grad)" rx="2.5"/><text x="118" y="24.5" class="txt bar-text" text-anchor="end">211 万/s (0.47 us)</text><rect width="7" height="6" y="28" fill="url(#redis-gray-grad)" rx="2"/><text x="13" y="33.5" class="txt bar-text-muted">2.3 万/s (43.0 us)</text></g><g transform="translate(24 944)"><text y="11" class="txt cmd-name">HDEL</text><text x="326" y="11" class="txt speedup-badge" text-anchor="end">8.7x</text><rect width="27" height="10" y="16" fill="url(#wedb-blue-grad)" rx="2.5"/><text x="33" y="24.5" class="txt bar-text-blue">20 万/s (4.9 us)</text><rect width="7" height="6" y="28" fill="url(#redis-gray-grad)" rx="2"/><text x="13" y="33.5" class="txt bar-text-muted">2.3 万/s (43.0 us)</text></g><g transform="translate(24 984)"><text y="11" class="txt cmd-name">HGETALL</text><text x="326" y="11" class="txt speedup-badge" text-anchor="end">13.9x</text><rect width="36" height="10" y="16" fill="url(#wedb-blue-grad)" rx="2.5"/><text x="42" y="24.5" class="txt bar-text-blue">32 万/s (3.2 us)</text><rect width="7" height="6" y="28" fill="url(#redis-gray-grad)" rx="2"/><text x="13" y="33.5" class="txt bar-text-muted">2.3 万/s (44.1 us)</text></g><g transform="translate(24 1024)"><text y="11" class="txt cmd-name">HKEYS</text><text x="326" y="11" class="txt speedup-badge" text-anchor="end">14.7x</text><rect width="36" height="10" y="16" fill="url(#wedb-blue-grad)" rx="2.5"/><text x="42" y="24.5" class="txt bar-text-blue">32 万/s (3.1 us)</text><rect width="6" height="6" y="28" fill="url(#redis-gray-grad)" rx="2"/><text x="12" y="33.5" class="txt bar-text-muted">2.2 万/s (45.8 us)</text></g><g transform="translate(24 1064)"><text y="11" class="txt cmd-name">HVALS</text><text x="326" y="11" class="txt speedup-badge" text-anchor="end">13.7x</text><rect width="36" height="10" y="16" fill="url(#wedb-blue-grad)" rx="2.5"/><text x="42" y="24.5" class="txt bar-text-blue">32 万/s (3.1 us)</text><rect width="7" height="6" y="28" fill="url(#redis-gray-grad)" rx="2"/><text x="13" y="33.5" class="txt bar-text-muted">2.3 万/s (42.8 us)</text></g><g transform="translate(24 1104)"><text y="11" class="txt cmd-name">HINCRBY</text><text x="326" y="11" class="txt speedup-badge" text-anchor="end">15.3x</text><rect width="37" height="10" y="16" fill="url(#wedb-blue-grad)" rx="2.5"/><text x="43" y="24.5" class="txt bar-text-blue">34 万/s (3.0 us)</text><rect width="6" height="6" y="28" fill="url(#redis-gray-grad)" rx="2"/><text x="12" y="33.5" class="txt bar-text-muted">2.2 万/s (45.6 us)</text></g><g transform="translate(24 1156)"><rect width="326" height="22" fill="#e2e8f0" fill-opacity=".65" stroke="#cbd5e1" stroke-width=".6" rx="4"/><rect width="3" height="14" x="5" y="4" fill="#2563eb" rx="1.5"/><text x="14" y="15" class="txt grp-title">List · 双向列表</text><text x="320" y="15" class="txt grp-cnt" text-anchor="end">10 ops</text></g><g transform="translate(24 1184)"><text y="11" class="txt cmd-name">LPUSH</text><text x="326" y="11" class="txt speedup-badge" text-anchor="end">15.0x</text><rect width="38" height="10" y="16" fill="url(#wedb-blue-grad)" rx="2.5"/><text x="44" y="24.5" class="txt bar-text-blue">34 万/s (2.9 us)</text><rect width="7" height="6" y="28" fill="url(#redis-gray-grad)" rx="2"/><text x="13" y="33.5" class="txt bar-text-muted">2.3 万/s (44.1 us)</text></g><g transform="translate(24 1224)"><text y="11" class="txt cmd-name">RPUSH</text><text x="326" y="11" class="txt speedup-badge" text-anchor="end">13.0x</text><rect width="35" height="10" y="16" fill="url(#wedb-blue-grad)" rx="2.5"/><text x="41" y="24.5" class="txt bar-text-blue">30 万/s (3.4 us)</text><rect width="7" height="6" y="28" fill="url(#redis-gray-grad)" rx="2"/><text x="13" y="33.5" class="txt bar-text-muted">2.3 万/s (43.8 us)</text></g><g transform="translate(24 1264)"><text y="11" class="txt cmd-name">LPOP</text><text x="326" y="11" class="txt speedup-badge" text-anchor="end">14.7x</text><rect width="37" height="10" y="16" fill="url(#wedb-blue-grad)" rx="2.5"/><text x="43" y="24.5" class="txt bar-text-blue">33 万/s (3.0 us)</text><rect width="6" height="6" y="28" fill="url(#redis-gray-grad)" rx="2"/><text x="12" y="33.5" class="txt bar-text-muted">2.2 万/s (44.7 us)</text></g><g transform="translate(24 1304)"><text y="11" class="txt cmd-name">RPOP</text><text x="326" y="11" class="txt speedup-badge" text-anchor="end">13.8x</text><rect width="36" height="10" y="16" fill="url(#wedb-blue-grad)" rx="2.5"/><text x="42" y="24.5" class="txt bar-text-blue">32 万/s (3.2 us)</text><rect width="7" height="6" y="28" fill="url(#redis-gray-grad)" rx="2"/><text x="13" y="33.5" class="txt bar-text-muted">2.3 万/s (43.5 us)</text></g><g transform="translate(24 1344)"><text y="11" class="txt cmd-name">LLEN</text><text x="326" y="11" class="txt speedup-badge" text-anchor="end">89.1x</text><rect width="127" height="10" y="16" fill="url(#wedb-blue-grad)" rx="2.5"/><text x="121" y="24.5" class="txt bar-text" text-anchor="end">218 万/s (0.46 us)</text><rect width="7" height="6" y="28" fill="url(#redis-gray-grad)" rx="2"/><text x="13" y="33.5" class="txt bar-text-muted">2.5 万/s (40.8 us)</text></g><g transform="translate(24 1384)"><text y="11" class="txt cmd-name">LRANGE</text><text x="326" y="11" class="txt speedup-badge" text-anchor="end">16.2x</text><rect width="41" height="10" y="16" fill="url(#wedb-blue-grad)" rx="2.5"/><text x="47" y="24.5" class="txt bar-text-blue">38 万/s (2.6 us)</text><rect width="7" height="6" y="28" fill="url(#redis-gray-grad)" rx="2"/><text x="13" y="33.5" class="txt bar-text-muted">2.4 万/s (42.4 us)</text></g><g transform="translate(24 1424)"><text y="11" class="txt cmd-name">LINDEX</text><text x="326" y="11" class="txt speedup-badge" text-anchor="end">61.3x</text><rect width="99" height="10" y="16" fill="url(#wedb-blue-grad)" rx="2.5"/><text x="93" y="24.5" class="txt bar-text" text-anchor="end">149 万/s (0.67 us)</text><rect width="7" height="6" y="28" fill="url(#redis-gray-grad)" rx="2"/><text x="13" y="33.5" class="txt bar-text-muted">2.4 万/s (41.0 us)</text></g><g transform="translate(24 1464)"><text y="11" class="txt cmd-name">LSET</text><text x="326" y="11" class="txt speedup-badge" text-anchor="end">19.9x</text><rect width="46" height="10" y="16" fill="url(#wedb-blue-grad)" rx="2.5"/><text x="52" y="24.5" class="txt bar-text-blue">45 万/s (2.2 us)</text><rect width="7" height="6" y="28" fill="url(#redis-gray-grad)" rx="2"/><text x="13" y="33.5" class="txt bar-text-muted">2.3 万/s (44.0 us)</text></g><g transform="translate(24 1504)"><text y="11" class="txt cmd-name">LREM</text><text x="326" y="11" class="txt speedup-badge" text-anchor="end">6.7x</text><rect width="14" height="10" y="16" fill="url(#wedb-blue-grad)" rx="2.5"/><text x="20" y="24.5" class="txt bar-text-blue">7.1 万/s (14.0 us)</text><rect width="4" height="6" y="28" fill="url(#redis-gray-grad)" rx="2"/><text x="10" y="33.5" class="txt bar-text-muted">1.1 万/s (93.9 us)</text></g><g transform="translate(24 1544)"><text y="11" class="txt cmd-name">LTRIM</text><text x="326" y="11" class="txt speedup-badge" text-anchor="end">15.4x</text><rect width="39" height="10" y="16" fill="url(#wedb-blue-grad)" rx="2.5"/><text x="45" y="24.5" class="txt bar-text-blue">36 万/s (2.8 us)</text><rect width="7" height="6" y="28" fill="url(#redis-gray-grad)" rx="2"/><text x="13" y="33.5" class="txt bar-text-muted">2.3 万/s (43.1 us)</text></g><g transform="translate(24 1596)"><rect width="326" height="22" fill="#e2e8f0" fill-opacity=".65" stroke="#cbd5e1" stroke-width=".6" rx="4"/><rect width="3" height="14" x="5" y="4" fill="#2563eb" rx="1.5"/><text x="14" y="15" class="txt grp-title">JSON · 结构化文档 (RedisJSON)</text><text x="320" y="15" class="txt grp-cnt" text-anchor="end">6 ops</text></g><g transform="translate(24 1624)"><text y="11" class="txt cmd-name">JSON.GET</text><text x="326" y="11" class="txt speedup-badge" text-anchor="end">36.6x</text><rect width="65" height="10" y="16" fill="url(#wedb-blue-grad)" rx="2.5"/><text x="71" y="24.5" class="txt bar-text-blue">79 万/s (1.3 us)</text><rect width="6" height="6" y="28" fill="url(#redis-gray-grad)" rx="2"/><text x="12" y="33.5" class="txt bar-text-muted">2.2 万/s (46.4 us)</text></g><g transform="translate(24 1664)"><text y="11" class="txt cmd-name">JSON.SET</text><text x="326" y="11" class="txt speedup-badge" text-anchor="end">11.1x</text><rect width="30" height="10" y="16" fill="url(#wedb-blue-grad)" rx="2.5"/><text x="36" y="24.5" class="txt bar-text-blue">24 万/s (4.1 us)</text><rect width="6" height="6" y="28" fill="url(#redis-gray-grad)" rx="2"/><text x="12" y="33.5" class="txt bar-text-muted">2.2 万/s (45.8 us)</text></g><g transform="translate(24 1704)"><text y="11" class="txt cmd-name">JSON.DEL</text><text x="326" y="11" class="txt speedup-badge" text-anchor="end">9.0x</text><rect width="16" height="10" y="16" fill="url(#wedb-blue-grad)" rx="2.5"/><text x="22" y="24.5" class="txt bar-text-blue">8.9 万/s (11.3 us)</text><rect width="4" height="6" y="28" fill="url(#redis-gray-grad)" rx="2"/><text x="10" y="33.5" class="txt bar-text-muted">1.0 万/s (101.5 us)</text></g><g transform="translate(24 1744)"><text y="11" class="txt cmd-name">JSON.NUMINCRBY</text><text x="326" y="11" class="txt speedup-badge" text-anchor="end">11.4x</text><rect width="30" height="10" y="16" fill="url(#wedb-blue-grad)" rx="2.5"/><text x="36" y="24.5" class="txt bar-text-blue">24 万/s (4.2 us)</text><rect width="6" height="6" y="28" fill="url(#redis-gray-grad)" rx="2"/><text x="12" y="33.5" class="txt bar-text-muted">2.1 万/s (48.2 us)</text></g><g transform="translate(24 1784)"><text y="11" class="txt cmd-name">JSON.ARRLEN</text><text x="326" y="11" class="txt speedup-badge" text-anchor="end">42.1x</text><rect width="71" height="10" y="16" fill="url(#wedb-blue-grad)" rx="2.5"/><text x="77" y="24.5" class="txt bar-text-blue">91 万/s (1.1 us)</text><rect width="6" height="6" y="28" fill="url(#redis-gray-grad)" rx="2"/><text x="12" y="33.5" class="txt bar-text-muted">2.2 万/s (46.4 us)</text></g><g transform="translate(24 1824)"><text y="11" class="txt cmd-name">JSON.TYPE</text><text x="326" y="11" class="txt speedup-badge" text-anchor="end">37.8x</text><rect width="71" height="10" y="16" fill="url(#wedb-blue-grad)" rx="2.5"/><text x="77" y="24.5" class="txt bar-text-blue">89 万/s (1.1 us)</text><rect width="7" height="6" y="28" fill="url(#redis-gray-grad)" rx="2"/><text x="13" y="33.5" class="txt bar-text-muted">2.4 万/s (42.5 us)</text></g><g transform="translate(24 1876)"><rect width="326" height="22" fill="#e2e8f0" fill-opacity=".65" stroke="#cbd5e1" stroke-width=".6" rx="4"/><rect width="3" height="14" x="5" y="4" fill="#2563eb" rx="1.5"/><text x="14" y="15" class="txt grp-title">Search · 检索与向量 (RediSearch)</text><text x="320" y="15" class="txt grp-cnt" text-anchor="end">3 ops</text></g><g transform="translate(24 1904)"><text y="11" class="txt cmd-name">VECTOR.KNN</text><text x="326" y="11" class="txt speedup-badge" text-anchor="end">28.8x</text><rect width="45" height="10" y="16" fill="url(#wedb-blue-grad)" rx="2.5"/><text x="51" y="24.5" class="txt bar-text-blue">44 万/s (2.2 us)</text><rect width="5" height="6" y="28" fill="url(#redis-gray-grad)" rx="2"/><text x="11" y="33.5" class="txt bar-text-muted">1.5 万/s (64.8 us)</text></g><g transform="translate(24 1944)"><text y="11" class="txt cmd-name">FT.SEARCH</text><text x="326" y="11" class="txt speedup-badge" text-anchor="end">3.9x</text><rect width="11" height="10" y="16" fill="url(#wedb-blue-grad)" rx="2.5"/><text x="17" y="24.5" class="txt bar-text-blue">5.1 万/s (19.8 us)</text><rect width="5" height="6" y="28" fill="url(#redis-gray-grad)" rx="2"/><text x="11" y="33.5" class="txt bar-text-muted">1.3 万/s (77.2 us)</text></g><g transform="translate(24 1984)"><text y="11" class="txt cmd-name">FT.TAG</text><text x="326" y="11" class="txt speedup-badge" text-anchor="end">3.4x</text><rect width="11" height="10" y="16" fill="url(#wedb-blue-grad)" rx="2.5"/><text x="17" y="24.5" class="txt bar-text-blue">5.1 万/s (19.6 us)</text><rect width="5" height="6" y="28" fill="url(#redis-gray-grad)" rx="2"/><text x="11" y="33.5" class="txt bar-text-muted">1.5 万/s (66.4 us)</text></g><g transform="translate(24 2036)"><rect width="326" height="22" fill="#e2e8f0" fill-opacity=".65" stroke="#cbd5e1" stroke-width=".6" rx="4"/><rect width="3" height="14" x="5" y="4" fill="#2563eb" rx="1.5"/><text x="14" y="15" class="txt grp-title">HyperLogLog · 基数统计</text><text x="320" y="15" class="txt grp-cnt" text-anchor="end">2 ops</text></g><g transform="translate(24 2064)"><text y="11" class="txt cmd-name">PFADD</text><text x="326" y="11" class="txt speedup-badge" text-anchor="end">10.0x</text><rect width="29" height="10" y="16" fill="url(#wedb-blue-grad)" rx="2.5"/><text x="35" y="24.5" class="txt bar-text-blue">22 万/s (4.5 us)</text><rect width="6" height="6" y="28" fill="url(#redis-gray-grad)" rx="2"/><text x="12" y="33.5" class="txt bar-text-muted">2.2 万/s (44.9 us)</text></g><g transform="translate(24 2104)"><text y="11" class="txt cmd-name">PFCOUNT</text><text x="326" y="11" class="txt speedup-badge" text-anchor="end">1.3x</text><rect width="8" height="10" y="16" fill="url(#wedb-blue-grad)" rx="2.5"/><text x="14" y="24.5" class="txt bar-text-blue">3.1 万/s (32.3 us)</text><rect width="7" height="6" y="28" fill="url(#redis-gray-grad)" rx="2"/><text x="13" y="33.5" class="txt bar-text-muted">2.4 万/s (41.5 us)</text></g><g transform="translate(24 2156)"><rect width="326" height="22" fill="#e2e8f0" fill-opacity=".65" stroke="#cbd5e1" stroke-width=".6" rx="4"/><rect width="3" height="14" x="5" y="4" fill="#2563eb" rx="1.5"/><text x="14" y="15" class="txt grp-title">Key &amp; TTL · 键与过期管理</text><text x="320" y="15" class="txt grp-cnt" text-anchor="end">4 ops</text></g><g transform="translate(24 2184)"><text y="11" class="txt cmd-name">EXISTS</text><text x="326" y="11" class="txt speedup-badge" text-anchor="end">172.9x</text><rect width="215" height="10" y="16" fill="url(#wedb-blue-grad)" rx="2.5"/><text x="209" y="24.5" class="txt bar-text" text-anchor="end">493 万/s (0.20 us)</text><rect width="8" height="6" y="28" fill="url(#redis-gray-grad)" rx="2"/><text x="14" y="33.5" class="txt bar-text-muted">2.9 万/s (35.1 us)</text></g><g transform="translate(24 2224)"><text y="11" class="txt cmd-name">DEL</text><text x="326" y="11" class="txt speedup-badge" text-anchor="end">8.6x</text><rect width="30" height="10" y="16" fill="url(#wedb-blue-grad)" rx="2.5"/><text x="36" y="24.5" class="txt bar-text-blue">24 万/s (4.1 us)</text><rect width="7" height="6" y="28" fill="url(#redis-gray-grad)" rx="2"/><text x="13" y="33.5" class="txt bar-text-muted">2.8 万/s (35.6 us)</text></g><g transform="translate(24 2264)"><text y="11" class="txt cmd-name">EXPIRE</text><text x="326" y="11" class="txt speedup-badge" text-anchor="end">21.0x</text><rect width="49" height="10" y="16" fill="url(#wedb-blue-grad)" rx="2.5"/><text x="55" y="24.5" class="txt bar-text-blue">50 万/s (2.0 us)</text><rect width="7" height="6" y="28" fill="url(#redis-gray-grad)" rx="2"/><text x="13" y="33.5" class="txt bar-text-muted">2.4 万/s (42.0 us)</text></g><g transform="translate(24 2304)"><text y="11" class="txt cmd-name">TTL</text><text x="326" y="11" class="txt speedup-badge" text-anchor="end">168.1x</text><rect width="188" height="10" y="16" fill="url(#wedb-blue-grad)" rx="2.5"/><text x="182" y="24.5" class="txt bar-text" text-anchor="end">401 万/s (0.25 us)</text><rect width="7" height="6" y="28" fill="url(#redis-gray-grad)" rx="2"/><text x="13" y="33.5" class="txt bar-text-muted">2.4 万/s (42.0 us)</text></g><g transform="translate(370 236)"><rect width="326" height="22" fill="#e2e8f0" fill-opacity=".65" stroke="#cbd5e1" stroke-width=".6" rx="4"/><rect width="3" height="14" x="5" y="4" fill="#2563eb" rx="1.5"/><text x="14" y="15" class="txt grp-title">Set · 无序集合</text><text x="320" y="15" class="txt grp-cnt" text-anchor="end">7 ops</text></g><g transform="translate(370 264)"><text y="11" class="txt cmd-name">SADD</text><text x="326" y="11" class="txt speedup-badge" text-anchor="end">19.2x</text><rect width="44" height="10" y="16" fill="url(#wedb-blue-grad)" rx="2.5"/><text x="50" y="24.5" class="txt bar-text-blue">43 万/s (2.3 us)</text><rect width="6" height="6" y="28" fill="url(#redis-gray-grad)" rx="2"/><text x="12" y="33.5" class="txt bar-text-muted">2.2 万/s (44.9 us)</text></g><g transform="translate(370 304)"><text y="11" class="txt cmd-name">SREM</text><text x="326" y="11" class="txt speedup-badge" text-anchor="end">9.7x</text><rect width="28" height="10" y="16" fill="url(#wedb-blue-grad)" rx="2.5"/><text x="34" y="24.5" class="txt bar-text-blue">21 万/s (4.8 us)</text><rect width="6" height="6" y="28" fill="url(#redis-gray-grad)" rx="2"/><text x="12" y="33.5" class="txt bar-text-muted">2.1 万/s (46.5 us)</text></g><g transform="translate(370 344)"><text y="11" class="txt cmd-name">SISMEMBER</text><text x="326" y="11" class="txt speedup-badge" text-anchor="end">63.9x</text><rect width="101" height="10" y="16" fill="url(#wedb-blue-grad)" rx="2.5"/><text x="95" y="24.5" class="txt bar-text" text-anchor="end">155 万/s (0.65 us)</text><rect width="7" height="6" y="28" fill="url(#redis-gray-grad)" rx="2"/><text x="13" y="33.5" class="txt bar-text-muted">2.4 万/s (41.3 us)</text></g><g transform="translate(370 384)"><text y="11" class="txt cmd-name">SCARD</text><text x="326" y="11" class="txt speedup-badge" text-anchor="end">86.3x</text><rect width="123" height="10" y="16" fill="url(#wedb-blue-grad)" rx="2.5"/><text x="117" y="24.5" class="txt bar-text" text-anchor="end">210 万/s (0.48 us)</text><rect width="7" height="6" y="28" fill="url(#redis-gray-grad)" rx="2"/><text x="13" y="33.5" class="txt bar-text-muted">2.4 万/s (41.1 us)</text></g><g transform="translate(370 424)"><text y="11" class="txt cmd-name">SMEMBERS</text><text x="326" y="11" class="txt speedup-badge" text-anchor="end">13.0x</text><rect width="36" height="10" y="16" fill="url(#wedb-blue-grad)" rx="2.5"/><text x="42" y="24.5" class="txt bar-text-blue">31 万/s (3.2 us)</text><rect width="7" height="6" y="28" fill="url(#redis-gray-grad)" rx="2"/><text x="13" y="33.5" class="txt bar-text-muted">2.4 万/s (41.8 us)</text></g><g transform="translate(370 464)"><text y="11" class="txt cmd-name">SPOP</text><text x="326" y="11" class="txt speedup-badge" text-anchor="end">9.6x</text><rect width="18" height="10" y="16" fill="url(#wedb-blue-grad)" rx="2.5"/><text x="24" y="24.5" class="txt bar-text-blue">11 万/s (9.2 us)</text><rect width="4" height="6" y="28" fill="url(#redis-gray-grad)" rx="2"/><text x="10" y="33.5" class="txt bar-text-muted">1.1 万/s (88.4 us)</text></g><g transform="translate(370 504)"><text y="11" class="txt cmd-name">SRANDMEMBER</text><text x="326" y="11" class="txt speedup-badge" text-anchor="end">12.4x</text><rect width="35" height="10" y="16" fill="url(#wedb-blue-grad)" rx="2.5"/><text x="41" y="24.5" class="txt bar-text-blue">30 万/s (3.3 us)</text><rect width="7" height="6" y="28" fill="url(#redis-gray-grad)" rx="2"/><text x="13" y="33.5" class="txt bar-text-muted">2.4 万/s (40.9 us)</text></g><g transform="translate(370 556)"><rect width="326" height="22" fill="#e2e8f0" fill-opacity=".65" stroke="#cbd5e1" stroke-width=".6" rx="4"/><rect width="3" height="14" x="5" y="4" fill="#2563eb" rx="1.5"/><text x="14" y="15" class="txt grp-title">ZSet · 有序集合</text><text x="320" y="15" class="txt grp-cnt" text-anchor="end">10 ops</text></g><g transform="translate(370 584)"><text y="11" class="txt cmd-name">ZADD</text><text x="326" y="11" class="txt speedup-badge" text-anchor="end">11.8x</text><rect width="33" height="10" y="16" fill="url(#wedb-blue-grad)" rx="2.5"/><text x="39" y="24.5" class="txt bar-text-blue">27 万/s (3.7 us)</text><rect width="7" height="6" y="28" fill="url(#redis-gray-grad)" rx="2"/><text x="13" y="33.5" class="txt bar-text-muted">2.3 万/s (43.9 us)</text></g><g transform="translate(370 624)"><text y="11" class="txt cmd-name">ZSCORE</text><text x="326" y="11" class="txt speedup-badge" text-anchor="end">61.3x</text><rect width="94" height="10" y="16" fill="url(#wedb-blue-grad)" rx="2.5"/><text x="88" y="24.5" class="txt bar-text" text-anchor="end">138 万/s (0.72 us)</text><rect width="6" height="6" y="28" fill="url(#redis-gray-grad)" rx="2"/><text x="12" y="33.5" class="txt bar-text-muted">2.3 万/s (44.3 us)</text></g><g transform="translate(370 664)"><text y="11" class="txt cmd-name">ZRANGE</text><text x="326" y="11" class="txt speedup-badge" text-anchor="end">12.2x</text><rect width="32" height="10" y="16" fill="url(#wedb-blue-grad)" rx="2.5"/><text x="38" y="24.5" class="txt bar-text-blue">27 万/s (3.7 us)</text><rect width="6" height="6" y="28" fill="url(#redis-gray-grad)" rx="2"/><text x="12" y="33.5" class="txt bar-text-muted">2.2 万/s (45.8 us)</text></g><g transform="translate(370 704)"><text y="11" class="txt cmd-name">ZCARD</text><text x="326" y="11" class="txt speedup-badge" text-anchor="end">82.5x</text><rect width="120" height="10" y="16" fill="url(#wedb-blue-grad)" rx="2.5"/><text x="114" y="24.5" class="txt bar-text" text-anchor="end">202 万/s (0.49 us)</text><rect width="7" height="6" y="28" fill="url(#redis-gray-grad)" rx="2"/><text x="13" y="33.5" class="txt bar-text-muted">2.5 万/s (40.8 us)</text></g><g transform="translate(370 744)"><text y="11" class="txt cmd-name">ZCOUNT</text><text x="326" y="11" class="txt speedup-badge" text-anchor="end">13.1x</text><rect width="36" height="10" y="16" fill="url(#wedb-blue-grad)" rx="2.5"/><text x="42" y="24.5" class="txt bar-text-blue">32 万/s (3.2 us)</text><rect width="7" height="6" y="28" fill="url(#redis-gray-grad)" rx="2"/><text x="13" y="33.5" class="txt bar-text-muted">2.4 万/s (41.6 us)</text></g><g transform="translate(370 784)"><text y="11" class="txt cmd-name">ZINCRBY</text><text x="326" y="11" class="txt speedup-badge" text-anchor="end">11.4x</text><rect width="31" height="10" y="16" fill="url(#wedb-blue-grad)" rx="2.5"/><text x="37" y="24.5" class="txt bar-text-blue">26 万/s (3.9 us)</text><rect width="6" height="6" y="28" fill="url(#redis-gray-grad)" rx="2"/><text x="12" y="33.5" class="txt bar-text-muted">2.2 万/s (44.6 us)</text></g><g transform="translate(370 824)"><text y="11" class="txt cmd-name">ZRANK</text><text x="326" y="11" class="txt speedup-badge" text-anchor="end">11.7x</text><rect width="33" height="10" y="16" fill="url(#wedb-blue-grad)" rx="2.5"/><text x="39" y="24.5" class="txt bar-text-blue">28 万/s (3.6 us)</text><rect width="7" height="6" y="28" fill="url(#redis-gray-grad)" rx="2"/><text x="13" y="33.5" class="txt bar-text-muted">2.4 万/s (41.7 us)</text></g><g transform="translate(370 864)"><text y="11" class="txt cmd-name">ZREVRANGE</text><text x="326" y="11" class="txt speedup-badge" text-anchor="end">8.7x</text><rect width="26" height="10" y="16" fill="url(#wedb-blue-grad)" rx="2.5"/><text x="32" y="24.5" class="txt bar-text-blue">19 万/s (5.3 us)</text><rect width="6" height="6" y="28" fill="url(#redis-gray-grad)" rx="2"/><text x="12" y="33.5" class="txt bar-text-muted">2.2 万/s (46.0 us)</text></g><g transform="translate(370 904)"><text y="11" class="txt cmd-name">ZPOPMIN</text><text x="326" y="11" class="txt speedup-badge" text-anchor="end">10.8x</text><rect width="18" height="10" y="16" fill="url(#wedb-blue-grad)" rx="2.5"/><text x="24" y="24.5" class="txt bar-text-blue">11 万/s (9.0 us)</text><rect width="4" height="6" y="28" fill="url(#redis-gray-grad)" rx="2"/><text x="10" y="33.5" class="txt bar-text-muted">1.0 万/s (97.0 us)</text></g><g transform="translate(370 944)"><text y="11" class="txt cmd-name">ZREM</text><text x="326" y="11" class="txt speedup-badge" text-anchor="end">8.4x</text><rect width="26" height="10" y="16" fill="url(#wedb-blue-grad)" rx="2.5"/><text x="32" y="24.5" class="txt bar-text-blue">20 万/s (5.1 us)</text><rect width="7" height="6" y="28" fill="url(#redis-gray-grad)" rx="2"/><text x="13" y="33.5" class="txt bar-text-muted">2.3 万/s (43.0 us)</text></g><g transform="translate(370 996)"><rect width="326" height="22" fill="#e2e8f0" fill-opacity=".65" stroke="#cbd5e1" stroke-width=".6" rx="4"/><rect width="3" height="14" x="5" y="4" fill="#2563eb" rx="1.5"/><text x="14" y="15" class="txt grp-title">Bitmap · 高效位图</text><text x="320" y="15" class="txt grp-cnt" text-anchor="end">4 ops</text></g><g transform="translate(370 1024)"><text y="11" class="txt cmd-name">GETBIT</text><text x="326" y="11" class="txt speedup-badge" text-anchor="end">112.7x</text><rect width="134" height="10" y="16" fill="url(#wedb-blue-grad)" rx="2.5"/><text x="128" y="24.5" class="txt bar-text" text-anchor="end">237 万/s (0.42 us)</text><rect width="6" height="6" y="28" fill="url(#redis-gray-grad)" rx="2"/><text x="12" y="33.5" class="txt bar-text-muted">2.1 万/s (47.5 us)</text></g><g transform="translate(370 1064)"><text y="11" class="txt cmd-name">SETBIT</text><text x="326" y="11" class="txt speedup-badge" text-anchor="end">5.8x</text><rect width="18" height="10" y="16" fill="url(#wedb-blue-grad)" rx="2.5"/><text x="24" y="24.5" class="txt bar-text-blue">11 万/s (9.5 us)</text><rect width="6" height="6" y="28" fill="url(#redis-gray-grad)" rx="2"/><text x="12" y="33.5" class="txt bar-text-muted">1.8 万/s (55.4 us)</text></g><g transform="translate(370 1104)"><text y="11" class="txt cmd-name">BITCOUNT</text><text x="326" y="11" class="txt speedup-badge" text-anchor="end">104.3x</text><rect width="130" height="10" y="16" fill="url(#wedb-blue-grad)" rx="2.5"/><text x="124" y="24.5" class="txt bar-text" text-anchor="end">227 万/s (0.44 us)</text><rect width="6" height="6" y="28" fill="url(#redis-gray-grad)" rx="2"/><text x="12" y="33.5" class="txt bar-text-muted">2.2 万/s (46.0 us)</text></g><g transform="translate(370 1144)"><text y="11" class="txt cmd-name">BITPOS</text><text x="326" y="11" class="txt speedup-badge" text-anchor="end">111.0x</text><rect width="128" height="10" y="16" fill="url(#wedb-blue-grad)" rx="2.5"/><text x="122" y="24.5" class="txt bar-text" text-anchor="end">222 万/s (0.45 us)</text><rect width="6" height="6" y="28" fill="url(#redis-gray-grad)" rx="2"/><text x="12" y="33.5" class="txt bar-text-muted">2.0 万/s (50.0 us)</text></g><g transform="translate(370 1196)"><rect width="326" height="22" fill="#e2e8f0" fill-opacity=".65" stroke="#cbd5e1" stroke-width=".6" rx="4"/><rect width="3" height="14" x="5" y="4" fill="#2563eb" rx="1.5"/><text x="14" y="15" class="txt grp-title">Stream · 消息流与日志</text><text x="320" y="15" class="txt grp-cnt" text-anchor="end">5 ops</text></g><g transform="translate(370 1224)"><text y="11" class="txt cmd-name">XADD</text><text x="326" y="11" class="txt speedup-badge" text-anchor="end">16.8x</text><rect width="40" height="10" y="16" fill="url(#wedb-blue-grad)" rx="2.5"/><text x="46" y="24.5" class="txt bar-text-blue">38 万/s (2.7 us)</text><rect width="6" height="6" y="28" fill="url(#redis-gray-grad)" rx="2"/><text x="12" y="33.5" class="txt bar-text-muted">2.2 万/s (44.9 us)</text></g><g transform="translate(370 1264)"><text y="11" class="txt cmd-name">XLEN</text><text x="326" y="11" class="txt speedup-badge" text-anchor="end">90.3x</text><rect width="128" height="10" y="16" fill="url(#wedb-blue-grad)" rx="2.5"/><text x="122" y="24.5" class="txt bar-text" text-anchor="end">222 万/s (0.45 us)</text><rect width="7" height="6" y="28" fill="url(#redis-gray-grad)" rx="2"/><text x="13" y="33.5" class="txt bar-text-muted">2.5 万/s (40.7 us)</text></g><g transform="translate(370 1304)"><text y="11" class="txt cmd-name">XRANGE</text><text x="326" y="11" class="txt speedup-badge" text-anchor="end">12.5x</text><rect width="32" height="10" y="16" fill="url(#wedb-blue-grad)" rx="2.5"/><text x="38" y="24.5" class="txt bar-text-blue">26 万/s (3.8 us)</text><rect width="6" height="6" y="28" fill="url(#redis-gray-grad)" rx="2"/><text x="12" y="33.5" class="txt bar-text-muted">2.1 万/s (47.8 us)</text></g><g transform="translate(370 1344)"><text y="11" class="txt cmd-name">XREAD</text><text x="326" y="11" class="txt speedup-badge" text-anchor="end">13.1x</text><rect width="32" height="10" y="16" fill="url(#wedb-blue-grad)" rx="2.5"/><text x="38" y="24.5" class="txt bar-text-blue">27 万/s (3.7 us)</text><rect width="6" height="6" y="28" fill="url(#redis-gray-grad)" rx="2"/><text x="12" y="33.5" class="txt bar-text-muted">2.0 万/s (49.1 us)</text></g><g transform="translate(370 1384)"><text y="11" class="txt cmd-name">XDEL</text><text x="326" y="11" class="txt speedup-badge" text-anchor="end">16.6x</text><rect width="26" height="10" y="16" fill="url(#wedb-blue-grad)" rx="2.5"/><text x="32" y="24.5" class="txt bar-text-blue">19 万/s (5.3 us)</text><rect width="4" height="6" y="28" fill="url(#redis-gray-grad)" rx="2"/><text x="10" y="33.5" class="txt bar-text-muted">1.1 万/s (88.3 us)</text></g><g transform="translate(370 1436)"><rect width="326" height="22" fill="#e2e8f0" fill-opacity=".65" stroke="#cbd5e1" stroke-width=".6" rx="4"/><rect width="3" height="14" x="5" y="4" fill="#2563eb" rx="1.5"/><text x="14" y="15" class="txt grp-title">Bloom &amp; Cuckoo · 概率过滤 (RedisBloom)</text><text x="320" y="15" class="txt grp-cnt" text-anchor="end">6 ops</text></g><g transform="translate(370 1464)"><text y="11" class="txt cmd-name">BF.ADD</text><text x="326" y="11" class="txt speedup-badge" text-anchor="end">2.3x</text><rect width="11" height="10" y="16" fill="url(#wedb-blue-grad)" rx="2.5"/><text x="17" y="24.5" class="txt bar-text-blue">4.9 万/s (20.6 us)</text><rect width="6" height="6" y="28" fill="url(#redis-gray-grad)" rx="2"/><text x="12" y="33.5" class="txt bar-text-muted">2.1 万/s (48.2 us)</text></g><g transform="translate(370 1504)"><text y="11" class="txt cmd-name">BF.EXISTS</text><text x="326" y="11" class="txt speedup-badge" text-anchor="end">59.7x</text><rect width="103" height="10" y="16" fill="url(#wedb-blue-grad)" rx="2.5"/><text x="97" y="24.5" class="txt bar-text" text-anchor="end">159 万/s (0.63 us)</text><rect width="7" height="6" y="28" fill="url(#redis-gray-grad)" rx="2"/><text x="13" y="33.5" class="txt bar-text-muted">2.7 万/s (37.4 us)</text></g><g transform="translate(370 1544)"><text y="11" class="txt cmd-name">BF.INFO</text><text x="326" y="11" class="txt speedup-badge" text-anchor="end">110.8x</text><rect width="130" height="10" y="16" fill="url(#wedb-blue-grad)" rx="2.5"/><text x="124" y="24.5" class="txt bar-text" text-anchor="end">228 万/s (0.44 us)</text><rect width="6" height="6" y="28" fill="url(#redis-gray-grad)" rx="2"/><text x="12" y="33.5" class="txt bar-text-muted">2.1 万/s (48.6 us)</text></g><g transform="translate(370 1584)"><text y="11" class="txt cmd-name">CF.ADD</text><text x="326" y="11" class="txt speedup-badge" text-anchor="end">9.7x</text><rect width="30" height="10" y="16" fill="url(#wedb-blue-grad)" rx="2.5"/><text x="36" y="24.5" class="txt bar-text-blue">24 万/s (4.1 us)</text><rect width="7" height="6" y="28" fill="url(#redis-gray-grad)" rx="2"/><text x="13" y="33.5" class="txt bar-text-muted">2.5 万/s (39.7 us)</text></g><g transform="translate(370 1624)"><text y="11" class="txt cmd-name">CF.EXISTS</text><text x="326" y="11" class="txt speedup-badge" text-anchor="end">53.6x</text><rect width="100" height="10" y="16" fill="url(#wedb-blue-grad)" rx="2.5"/><text x="94" y="24.5" class="txt bar-text" text-anchor="end">151 万/s (0.66 us)</text><rect width="7" height="6" y="28" fill="url(#redis-gray-grad)" rx="2"/><text x="13" y="33.5" class="txt bar-text-muted">2.8 万/s (35.5 us)</text></g><g transform="translate(370 1664)"><text y="11" class="txt cmd-name">CF.DEL</text><text x="326" y="11" class="txt speedup-badge" text-anchor="end">11.1x</text><rect width="20" height="10" y="16" fill="url(#wedb-blue-grad)" rx="2.5"/><text x="26" y="24.5" class="txt bar-text-blue">13 万/s (7.6 us)</text><rect width="4" height="6" y="28" fill="url(#redis-gray-grad)" rx="2"/><text x="10" y="33.5" class="txt bar-text-muted">1.2 万/s (84.7 us)</text></g><g transform="translate(370 1716)"><rect width="326" height="22" fill="#e2e8f0" fill-opacity=".65" stroke="#cbd5e1" stroke-width=".6" rx="4"/><rect width="3" height="14" x="5" y="4" fill="#2563eb" rx="1.5"/><text x="14" y="15" class="txt grp-title">TimeSeries · 时序引擎 (RedisTimeSeries)</text><text x="320" y="15" class="txt grp-cnt" text-anchor="end">4 ops</text></g><g transform="translate(370 1744)"><text y="11" class="txt cmd-name">TS.ADD</text><text x="326" y="11" class="txt speedup-badge" text-anchor="end">6.9x</text><rect width="23" height="10" y="16" fill="url(#wedb-blue-grad)" rx="2.5"/><text x="29" y="24.5" class="txt bar-text-blue">15 万/s (6.5 us)</text><rect width="6" height="6" y="28" fill="url(#redis-gray-grad)" rx="2"/><text x="12" y="33.5" class="txt bar-text-muted">2.2 万/s (44.8 us)</text></g><g transform="translate(370 1784)"><text y="11" class="txt cmd-name">TS.GET</text><text x="326" y="11" class="txt speedup-badge" text-anchor="end">19.6x</text><rect width="46" height="10" y="16" fill="url(#wedb-blue-grad)" rx="2.5"/><text x="52" y="24.5" class="txt bar-text-blue">45 万/s (2.2 us)</text><rect width="7" height="6" y="28" fill="url(#redis-gray-grad)" rx="2"/><text x="13" y="33.5" class="txt bar-text-muted">2.3 万/s (43.4 us)</text></g><g transform="translate(370 1824)"><text y="11" class="txt cmd-name">TS.RANGE</text><text x="326" y="11" class="txt speedup-badge" text-anchor="end">6.7x</text><rect width="16" height="10" y="16" fill="url(#wedb-blue-grad)" rx="2.5"/><text x="22" y="24.5" class="txt bar-text-blue">9.4 万/s (10.6 us)</text><rect width="5" height="6" y="28" fill="url(#redis-gray-grad)" rx="2"/><text x="11" y="33.5" class="txt bar-text-muted">1.4 万/s (70.6 us)</text></g><g transform="translate(370 1864)"><text y="11" class="txt cmd-name">TS.INCRBY</text><text x="326" y="11" class="txt speedup-badge" text-anchor="end">4.6x</text><rect width="17" height="10" y="16" fill="url(#wedb-blue-grad)" rx="2.5"/><text x="23" y="24.5" class="txt bar-text-blue">10 万/s (9.8 us)</text><rect width="6" height="6" y="28" fill="url(#redis-gray-grad)" rx="2"/><text x="12" y="33.5" class="txt bar-text-muted">2.2 万/s (45.2 us)</text></g><g transform="translate(370 1916)"><rect width="326" height="22" fill="#e2e8f0" fill-opacity=".65" stroke="#cbd5e1" stroke-width=".6" rx="4"/><rect width="3" height="14" x="5" y="4" fill="#2563eb" rx="1.5"/><text x="14" y="15" class="txt grp-title">Geo &amp; T-Digest · 地理与分位数</text><text x="320" y="15" class="txt grp-cnt" text-anchor="end">8 ops</text></g><g transform="translate(370 1944)"><text y="11" class="txt cmd-name">GEOADD</text><text x="326" y="11" class="txt speedup-badge" text-anchor="end">11.6x</text><rect width="31" height="10" y="16" fill="url(#wedb-blue-grad)" rx="2.5"/><text x="37" y="24.5" class="txt bar-text-blue">25 万/s (4.0 us)</text><rect width="6" height="6" y="28" fill="url(#redis-gray-grad)" rx="2"/><text x="12" y="33.5" class="txt bar-text-muted">2.2 万/s (46.3 us)</text></g><g transform="translate(370 1984)"><text y="11" class="txt cmd-name">GEODIST</text><text x="326" y="11" class="txt speedup-badge" text-anchor="end">48.6x</text><rect width="84" height="10" y="16" fill="url(#wedb-blue-grad)" rx="2.5"/><text x="90" y="24.5" class="txt bar-text-blue">116 万/s (0.86 us)</text><rect width="7" height="6" y="28" fill="url(#redis-gray-grad)" rx="2"/><text x="13" y="33.5" class="txt bar-text-muted">2.4 万/s (41.7 us)</text></g><g transform="translate(370 2024)"><text y="11" class="txt cmd-name">GEOPOS</text><text x="326" y="11" class="txt speedup-badge" text-anchor="end">63.2x</text><rect width="101" height="10" y="16" fill="url(#wedb-blue-grad)" rx="2.5"/><text x="95" y="24.5" class="txt bar-text" text-anchor="end">153 万/s (0.65 us)</text><rect width="7" height="6" y="28" fill="url(#redis-gray-grad)" rx="2"/><text x="13" y="33.5" class="txt bar-text-muted">2.4 万/s (41.3 us)</text></g><g transform="translate(370 2064)"><text y="11" class="txt cmd-name">GEOHASH</text><text x="326" y="11" class="txt speedup-badge" text-anchor="end">58.9x</text><rect width="96" height="10" y="16" fill="url(#wedb-blue-grad)" rx="2.5"/><text x="90" y="24.5" class="txt bar-text" text-anchor="end">143 万/s (0.70 us)</text><rect width="7" height="6" y="28" fill="url(#redis-gray-grad)" rx="2"/><text x="13" y="33.5" class="txt bar-text-muted">2.4 万/s (41.1 us)</text></g><g transform="translate(370 2104)"><text y="11" class="txt cmd-name">TDIGEST.ADD</text><text x="326" y="11" class="txt speedup-badge" text-anchor="end">12.5x</text><rect width="35" height="10" y="16" fill="url(#wedb-blue-grad)" rx="2.5"/><text x="41" y="24.5" class="txt bar-text-blue">30 万/s (3.3 us)</text><rect width="7" height="6" y="28" fill="url(#redis-gray-grad)" rx="2"/><text x="13" y="33.5" class="txt bar-text-muted">2.4 万/s (41.2 us)</text></g><g transform="translate(370 2144)"><text y="11" class="txt cmd-name">TDIGEST.QUANTILE</text><text x="326" y="11" class="txt speedup-badge" text-anchor="end">49.7x</text><rect width="86" height="10" y="16" fill="url(#wedb-blue-grad)" rx="2.5"/><text x="80" y="24.5" class="txt bar-text" text-anchor="end">120 万/s (0.83 us)</text><rect width="7" height="6" y="28" fill="url(#redis-gray-grad)" rx="2"/><text x="13" y="33.5" class="txt bar-text-muted">2.4 万/s (41.4 us)</text></g><g transform="translate(370 2184)"><text y="11" class="txt cmd-name">TDIGEST.BYRANK</text><text x="326" y="11" class="txt speedup-badge" text-anchor="end">52.1x</text><rect width="86" height="10" y="16" fill="url(#wedb-blue-grad)" rx="2.5"/><text x="80" y="24.5" class="txt bar-text" text-anchor="end">120 万/s (0.83 us)</text><rect width="7" height="6" y="28" fill="url(#redis-gray-grad)" rx="2"/><text x="13" y="33.5" class="txt bar-text-muted">2.3 万/s (43.4 us)</text></g><g transform="translate(370 2224)"><text y="11" class="txt cmd-name">TDIGEST.CDF</text><text x="326" y="11" class="txt speedup-badge" text-anchor="end">43.6x</text><rect width="74" height="10" y="16" fill="url(#wedb-blue-grad)" rx="2.5"/><text x="80" y="24.5" class="txt bar-text-blue">96 万/s (1.0 us)</text><rect width="6" height="6" y="28" fill="url(#redis-gray-grad)" rx="2"/><text x="12" y="33.5" class="txt bar-text-muted">2.2 万/s (45.4 us)</text></g></svg>